<?xml version="1.0" standalone="yes"?>

<svg version="1.1" viewBox="0.0 0.0 969.7349081364829 552.1496062992126" fill="none" stroke="none" stroke-linecap="square" stroke-miterlimit="10" xmlns="http://www.w3.org/2000/svg" xmlns:xlink="http://www.w3.org/1999/xlink"><clipPath id="p.0"><path d="m0 0l969.7349 0l0 552.1496l-969.7349 0l0 -552.1496z" clip-rule="nonzero"></path></clipPath><g clip-path="url(#p.0)"><path fill="#000000" fill-opacity="0.0" d="m0 0l969.7349 0l0 552.1496l-969.7349 0z" fill-rule="evenodd"></path><path fill="#150939" d="m0 0l969.7323 0l0 552.1575l-969.7323 0z" fill-rule="evenodd"></path><path fill="#000000" fill-opacity="0.0" d="m18.220472 92.919945l104.44094 0l0 68.15748l-104.44094 0z" fill-rule="evenodd"></path><path fill="#ffffff" d="m44.99263 122.481186l-0.28125 1.015625q-1.40625 -0.234375 -2.40625 -0.234375q-1.03125 0 -1.515625 0.234375q-0.421875 0.203125 -0.53125 0.515625q-0.109375 0.296875 -0.109375 1.1875l0 0.625l4.03125 0l0 1.015625l-4.03125 0l0 6.046875l4.03125 0l0 1.03125l-7.046875 0l0 -1.03125l1.984375 0l0 -6.046875l-1.984375 0l0 -1.015625l1.984375 0l0 -1.234375q0 -0.59375 0.15625 -1.078125q0.171875 -0.484375 0.84375 -0.875q0.6875 -0.390625 2.109375 -0.390625q1.0625 0 2.765625 0.234375zm7.725006 1.53125l-1.328125 0l0 -2.296875l1.328125 0l0 2.296875zm0 8.875l3.21875 0l0 1.03125l-7.53125 0l0 -1.03125l3.28125 0l0 -6.046875l-2.84375 0l0 -1.015625l3.875 0l0 7.0625zm11.068756 0l3.25 0l0 1.03125l-7.53125 0l0 -1.03125l3.265625 0l0 -9.640625l-3.171875 0l0 -1.03125l4.1875 0l0 10.671875zm14.990631 -2.890625l-7.65625 0q0.015625 1.296875 0.8125 2.21875q0.796875 0.921875 2.734375 0.921875q0.84375 0 1.890625 -0.3125q1.046875 -0.3125 2.015625 -0.84375l0.3125 0.984375q-1.046875 0.5625 -2.15625 0.875q-1.109375 0.296875 -2.109375 0.296875q-2.15625 0 -3.359375 -1.15625q-1.203125 -1.171875 -1.203125 -3.109375q0 -1.25 0.578125 -2.21875q0.59375 -0.984375 1.609375 -1.53125q1.03125 -0.546875 2.28125 -0.546875q1.96875 0 3.09375 1.1875q1.140625 1.171875 1.15625 3.234375zm-4.28125 -3.375q-1.3125 0 -2.234375 0.65625q-0.90625 0.65625 -1.09375 1.703125l6.5 0q-0.109375 -1.015625 -0.96875 -1.6875q-0.859375 -0.671875 -2.203125 -0.671875zm12.521881 6.4375q0 0.4375 -0.375 0.765625q-0.375 0.3125 -0.875 0.3125q-0.5625 0 -0.953125 -0.328125q-0.375 -0.34375 -0.375 -0.765625q0 -0.453125 0.375 -0.78125q0.390625 -0.34375 0.9375 -0.34375q0.515625 0 0.890625 0.34375q0.375 0.328125 0.375 0.796875zm14.850006 -5.8125l-1.0 0.09375q-0.078125 -0.40625 -0.3125 -0.578125q-0.234375 -0.171875 -0.71875 -0.171875q-0.734375 0 -1.5 0.53125q-0.75 0.515625 -2.328125 2.015625l0 3.75l3.625 0l0 1.03125l-6.984375 0l0 -1.03125l2.34375 0l0 -6.046875l-2.34375 0l0 -1.015625l3.359375 0l0 2.15625l0.921875 -0.8125q0.984375 -0.90625 1.734375 -1.25q0.75 -0.34375 1.515625 -0.34375q0.75 0 1.15625 0.40625q0.421875 0.40625 0.53125 1.265625zm10.490631 2.75l-7.65625 0q0.015625 1.296875 0.8125 2.21875q0.796875 0.921875 2.734375 0.921875q0.84375 0 1.890625 -0.3125q1.046875 -0.3125 2.015625 -0.84375l0.3125 0.984375q-1.046875 0.5625 -2.15625 0.875q-1.109375 0.296875 -2.109375 0.296875q-2.15625 0 -3.359375 -1.15625q-1.203125 -1.171875 -1.203125 -3.109375q0 -1.25 0.578125 -2.21875q0.59375 -0.984375 1.609375 -1.53125q1.03125 -0.546875 2.28125 -0.546875q1.96875 0 3.09375 1.1875q1.140625 1.171875 1.15625 3.234375zm-4.28125 -3.375q-1.3125 0 -2.234375 0.65625q-0.90625 0.65625 -1.09375 1.703125l6.5 0q-0.109375 -1.015625 -0.96875 -1.6875q-0.859375 -0.671875 -2.203125 -0.671875z" fill-rule="nonzero"></path><path fill="#000000" fill-opacity="0.0" d="m122.661415 126.99869l31.11811 0" fill-rule="evenodd"></path><path stroke="#ffffff" stroke-width="1.0" stroke-linejoin="round" stroke-linecap="butt" d="m122.661415 126.99869l25.11811 0" fill-rule="evenodd"></path><path fill="#ffffff" stroke="#ffffff" stroke-width="1.0" stroke-linecap="butt" d="m147.77953 128.65042l4.538101 -1.6517334l-4.538101 -1.6517334z" fill-rule="evenodd"></path><path fill="#f6b26b" d="m153.7874 93.38354l0 0c0 -9.283211 7.525528 -16.808731 16.808731 -16.808731l156.71326 0c4.457947 0 8.733307 1.7709122 11.885559 4.9231644c3.1522522 3.1522446 4.9231567 7.4276123 4.9231567 11.885567l0 67.23292c0 9.283218 -7.5255127 16.808746 -16.808716 16.808746l-156.71326 0l0 0c-9.283203 0 -16.808731 -7.525528 -16.808731 -16.808746z" fill-rule="evenodd"></path><path stroke="#000000" stroke-width="1.0" stroke-linejoin="round" stroke-linecap="butt" d="m153.7874 93.38354l0 0c0 -9.283211 7.525528 -16.808731 16.808731 -16.808731l156.71326 0c4.457947 0 8.733307 1.7709122 11.885559 4.9231644c3.1522522 3.1522446 4.9231567 7.4276123 4.9231567 11.885567l0 67.23292c0 9.283218 -7.5255127 16.808746 -16.808716 16.808746l-156.71326 0l0 0c-9.283203 0 -16.808731 -7.525528 -16.808731 -16.808746z" fill-rule="evenodd"></path><path fill="#000000" d="m216.3462 126.48l0 -0.34375l1.703125 -0.84375l0 -11.6875l-1.703125 -0.859375l0 -0.34375l5.5 0q2.234375 0 3.515625 0.9375q1.296875 0.921875 1.296875 2.546875q0 1.1875 -0.8125 2.140625q-0.796875 0.953125 -2.140625 1.4375l4.046875 5.90625l1.40625 0.765625l0 0.34375l-3.0625 0l-4.140625 -6.46875l-1.984375 0l0 5.25l1.59375 0.875l0 0.34375l-5.21875 0zm5.015625 -12.90625l-1.390625 0l0 5.265625l1.515625 0q1.34375 0 2.21875 -0.75q0.890625 -0.765625 0.890625 -1.9375q0 -1.1875 -0.875 -1.875q-0.875 -0.703125 -2.359375 -0.703125zm13.222946 13.125q-2.078125 0 -3.28125 -1.25q-1.1875 -1.265625 -1.1875 -3.34375q0 -1.59375 0.625 -2.8125q0.640625 -1.234375 1.671875 -1.921875q1.03125 -0.703125 2.25 -0.703125q1.6875 0 2.65625 1.171875q0.96875 1.171875 0.96875 3.375l-0.109375 0.109375l-6.375 0q0.015625 0.96875 0.375 1.84375q0.375 0.859375 1.171875 1.390625q0.796875 0.53125 2.140625 0.53125q1.171875 0 2.75 -0.84375l0.0625 0l0 0.203125q-0.484375 0.921875 -1.453125 1.59375q-0.96875 0.65625 -2.265625 0.65625zm-0.265625 -9.09375q-1.015625 0 -1.671875 0.71875q-0.65625 0.71875 -0.796875 2.015625l4.8125 0q-0.234375 -1.453125 -0.828125 -2.09375q-0.578125 -0.640625 -1.515625 -0.640625zm8.385361 9.09375q-1.0 0 -1.671875 -0.578125q-0.65625 -0.59375 -0.65625 -1.640625q0 -1.046875 0.78125 -1.8125q0.78125 -0.765625 2.609375 -1.203125l2.03125 -0.46875l0 -1.546875q0 -0.734375 -0.59375 -1.25q-0.578125 -0.53125 -1.328125 -0.53125q-0.8125 0 -1.140625 0.4375q-0.3125 0.4375 -0.3125 1.171875l0 0.59375l-0.109375 0.109375l-1.109375 0q-0.3125 0 -0.4375 -0.109375q-0.109375 -0.109375 -0.109375 -0.5q0 -0.46875 0.265625 -0.953125q0.28125 -0.484375 0.859375 -0.859375q0.59375 -0.375 1.25 -0.625q0.65625 -0.265625 1.40625 -0.265625q0.734375 0 1.453125 0.21875q0.71875 0.203125 1.15625 0.71875q0.453125 0.5 0.453125 1.390625l0 6.0625q0.15625 0.140625 0.421875 0.25q0.28125 0.109375 0.78125 0.109375l0.796875 0l0.0625 0.03125l0 0.078125q-0.25 0.46875 -0.75 0.828125q-0.5 0.34375 -1.21875 0.34375q-0.671875 0 -1.09375 -0.34375q-0.40625 -0.359375 -0.578125 -0.9375l-0.125 0q-0.5625 0.546875 -1.390625 0.921875q-0.8125 0.359375 -1.703125 0.359375zm-0.65625 -2.65625q0 1.328125 1.59375 1.328125q0.515625 0 1.015625 -0.109375q0.5 -0.109375 1.140625 -0.375l0 -3.15625q-1.703125 0.3125 -2.5 0.671875q-0.78125 0.34375 -1.015625 0.75q-0.234375 0.40625 -0.234375 0.890625zm12.304489 2.65625q-1.0 0 -1.734375 -0.171875q-0.71875 -0.171875 -1.46875 -0.5625l0 -2.390625l0.296875 0l0.6875 1.171875q0.65625 1.1875 2.15625 1.1875q0.84375 0 1.328125 -0.40625q0.484375 -0.40625 0.484375 -1.109375q0 -0.625 -0.3125 -0.96875q-0.296875 -0.34375 -0.84375 -0.609375q-0.53125 -0.265625 -1.28125 -0.609375q-1.09375 -0.484375 -1.6875 -1.0625q-0.578125 -0.59375 -0.578125 -1.65625q0 -0.796875 0.453125 -1.4375q0.453125 -0.640625 1.140625 -1.015625q0.6875 -0.390625 1.4375 -0.390625q0.796875 0 1.453125 0.203125q0.65625 0.1875 1.34375 0.53125l0 2.3125l-0.296875 0l-0.703125 -1.125q-0.359375 -0.578125 -0.796875 -0.828125q-0.421875 -0.265625 -0.90625 -0.265625q-0.734375 0 -1.171875 0.375q-0.4375 0.359375 -0.4375 1.0q0 0.71875 0.515625 1.09375q0.53125 0.375 1.53125 0.84375q0.609375 0.296875 1.203125 0.59375q0.609375 0.296875 1.0 0.84375q0.40625 0.546875 0.40625 1.546875q0 0.9375 -0.515625 1.59375q-0.515625 0.640625 -1.265625 0.984375q-0.734375 0.328125 -1.4375 0.328125zm10.432556 0q-1.421875 0 -2.484375 -0.65625q-1.046875 -0.671875 -1.640625 -1.796875q-0.578125 -1.140625 -0.578125 -2.5625q0 -1.4375 0.578125 -2.5625q0.59375 -1.125 1.640625 -1.78125q1.0625 -0.671875 2.484375 -0.671875q1.40625 0 2.453125 0.671875q1.0625 0.65625 1.640625 1.78125q0.59375 1.125 0.59375 2.5625q0 1.421875 -0.59375 2.5625q-0.578125 1.125 -1.640625 1.796875q-1.046875 0.65625 -2.453125 0.65625zm0.296875 -0.921875q0.84375 0 1.390625 -0.53125q0.5625 -0.53125 0.8125 -1.375q0.265625 -0.84375 0.265625 -1.765625q0 -1.125 -0.3125 -2.171875q-0.3125 -1.046875 -0.984375 -1.703125q-0.671875 -0.671875 -1.734375 -0.671875q-0.875 0 -1.4375 0.546875q-0.546875 0.53125 -0.8125 1.359375q-0.265625 0.828125 -0.265625 1.765625q0 1.140625 0.3125 2.1875q0.328125 1.03125 1.0 1.703125q0.6875 0.65625 1.765625 0.65625zm6.485962 0.703125l0 -0.34375l1.34375 -0.6875l0 -6.34375l-1.28125 -1.109375l0 -0.15625l2.640625 -1.171875l0.125 0l0.1875 1.578125l0.109375 0q0.8125 -0.8125 1.5625 -1.1875q0.765625 -0.390625 1.6875 -0.390625q1.25 0 2.046875 0.640625q0.8125 0.625 0.8125 1.859375l0 6.28125l1.34375 0.6875l0 0.34375l-4.578125 0l0 -0.34375l1.515625 -0.6875l0 -5.28125q0 -0.9375 -0.59375 -1.421875q-0.578125 -0.5 -1.515625 -0.5q-0.578125 0 -1.265625 0.203125q-0.6875 0.1875 -1.09375 0.546875l0 6.453125l1.515625 0.6875l0 0.34375l-4.5625 0z" fill-rule="nonzero"></path><path fill="#000000" d="m197.63853 146.8q-1.046875 -1.3125 -1.65625 -2.796875q-0.59375 -1.484375 -0.59375 -3.140625q0 -1.640625 0.59375 -3.125q0.609375 -1.5 1.65625 -2.796875l0.28125 0l0 0.03125q-0.796875 1.28125 -1.21875 2.6875q-0.421875 1.390625 -0.421875 3.203125q0 1.21875 0.1875 2.234375q0.1875 1.015625 0.546875 1.90625q0.375 0.890625 0.90625 1.75l0 0.046875l-0.28125 0zm0.988266 1.0625l0 -0.203125l0.84375 -0.4375l0 -7.03125l-0.796875 -0.6875l0 -0.09375l1.640625 -0.734375l0.078125 0l0.109375 0.8125l0.09375 0q0.515625 -0.4375 0.96875 -0.625q0.46875 -0.1875 1.015625 -0.1875q0.6875 0 1.203125 0.34375q0.515625 0.34375 0.8125 0.984375q0.3125 0.625 0.3125 1.5q0 1.09375 -0.40625 1.859375q-0.40625 0.765625 -1.109375 1.171875q-0.6875 0.40625 -1.515625 0.40625q-0.75 0 -1.34375 -0.140625l0 2.421875l0.9375 0.4375l0 0.203125l-2.84375 0zm3.21875 -8.28125q-0.3125 0 -0.65625 0.109375q-0.34375 0.09375 -0.65625 0.296875l0 3.75q0.40625 0.3125 0.8125 0.4375q0.40625 0.125 0.921875 0.125q0.640625 0 1.09375 -0.546875q0.46875 -0.546875 0.46875 -1.8125q0 -0.8125 -0.265625 -1.328125q-0.265625 -0.53125 -0.71875 -0.78125q-0.453125 -0.25 -1.0 -0.25zm5.775772 5.359375q-0.625 0 -1.046875 -0.359375q-0.40625 -0.375 -0.40625 -1.03125q0 -0.65625 0.484375 -1.125q0.484375 -0.484375 1.640625 -0.75l1.265625 -0.296875l0 -0.96875q0 -0.453125 -0.375 -0.78125q-0.359375 -0.328125 -0.828125 -0.328125q-0.5 0 -0.703125 0.28125q-0.203125 0.265625 -0.203125 0.71875l0 0.375l-0.0625 0.0625l-0.703125 0q-0.1875 0 -0.265625 -0.0625q-0.078125 -0.078125 -0.078125 -0.3125q0 -0.296875 0.171875 -0.59375q0.171875 -0.3125 0.53125 -0.546875q0.375 -0.234375 0.78125 -0.390625q0.40625 -0.15625 0.875 -0.15625q0.46875 0 0.90625 0.140625q0.453125 0.125 0.734375 0.4375q0.28125 0.3125 0.28125 0.875l0 3.78125q0.09375 0.09375 0.265625 0.15625q0.171875 0.0625 0.484375 0.0625l0.5 0l0.046875 0.03125l0 0.046875q-0.171875 0.28125 -0.484375 0.515625q-0.3125 0.21875 -0.765625 0.21875q-0.40625 0 -0.671875 -0.21875q-0.25 -0.234375 -0.359375 -0.59375l-0.078125 0q-0.34375 0.359375 -0.859375 0.59375q-0.515625 0.21875 -1.078125 0.21875zm-0.40625 -1.65625q0 0.828125 1.0 0.828125q0.3125 0 0.625 -0.0625q0.3125 -0.078125 0.71875 -0.25l0 -1.96875q-1.0625 0.203125 -1.5625 0.421875q-0.5 0.21875 -0.640625 0.46875q-0.140625 0.25 -0.140625 0.5625zm5.5330505 1.515625l0 -0.21875l0.84375 -0.421875l0 -3.96875l-0.796875 -0.6875l0 -0.09375l1.65625 -0.734375l0.078125 0l0.109375 1.125l0.0625 0q0.3125 -0.484375 0.5625 -0.734375q0.265625 -0.25 0.484375 -0.3125q0.234375 -0.078125 0.453125 -0.078125q0.109375 0 0.25 0.046875q0.140625 0.03125 0.234375 0.0625q0.140625 0.078125 0.265625 0.171875q0.140625 0.09375 0.140625 0.203125q0 0.125 -0.0625 0.25l-0.265625 0.640625l-0.09375 0l-0.5 -0.1875q-0.15625 -0.078125 -0.296875 -0.078125q-0.140625 -0.015625 -0.265625 -0.015625q-0.5625 0 -0.953125 0.5625l0 3.828125l0.953125 0.421875l0 0.21875l-2.859375 0zm7.4474945 0.140625q-0.625 0 -1.078125 -0.109375q-0.453125 -0.109375 -0.921875 -0.34375l0 -1.5l0.1875 0l0.421875 0.734375q0.40625 0.734375 1.34375 0.734375q0.53125 0 0.828125 -0.25q0.3125 -0.265625 0.3125 -0.703125q0 -0.375 -0.1875 -0.59375q-0.1875 -0.21875 -0.53125 -0.375q-0.34375 -0.171875 -0.8125 -0.390625q-0.671875 -0.296875 -1.046875 -0.65625q-0.359375 -0.375 -0.359375 -1.046875q0 -0.484375 0.28125 -0.890625q0.28125 -0.40625 0.703125 -0.640625q0.4375 -0.234375 0.90625 -0.234375q0.5 0 0.90625 0.125q0.421875 0.109375 0.84375 0.328125l0 1.453125l-0.1875 0l-0.4375 -0.71875q-0.234375 -0.359375 -0.5 -0.515625q-0.265625 -0.15625 -0.5625 -0.15625q-0.453125 0 -0.734375 0.234375q-0.265625 0.21875 -0.265625 0.609375q0 0.453125 0.3125 0.6875q0.328125 0.234375 0.953125 0.53125q0.375 0.1875 0.75 0.375q0.390625 0.1875 0.625 0.53125q0.25 0.328125 0.25 0.96875q0 0.578125 -0.3125 0.984375q-0.3125 0.40625 -0.78125 0.625q-0.46875 0.203125 -0.90625 0.203125zm6.367111 0q-1.296875 0 -2.046875 -0.78125q-0.734375 -0.796875 -0.734375 -2.09375q0 -1.0 0.390625 -1.765625q0.390625 -0.765625 1.03125 -1.1875q0.65625 -0.4375 1.40625 -0.4375q1.0625 0 1.65625 0.734375q0.609375 0.71875 0.609375 2.09375l-0.0625 0.078125l-3.984375 0q0.015625 0.609375 0.234375 1.15625q0.234375 0.53125 0.734375 0.875q0.5 0.328125 1.34375 0.328125q0.734375 0 1.71875 -0.546875l0.03125 0l0 0.140625q-0.296875 0.578125 -0.90625 1.0q-0.609375 0.40625 -1.421875 0.40625zm-0.15625 -5.6875q-0.640625 0 -1.046875 0.453125q-0.40625 0.4375 -0.5 1.25l3.015625 0q-0.15625 -0.90625 -0.53125 -1.296875q-0.359375 -0.40625 -0.9375 -0.40625zm3.9664154 8.28125l0 -0.28125q0.5625 -0.296875 0.8125 -0.671875q0.25 -0.375 0.25 -0.78125q0 -0.375 -0.171875 -0.625q-0.15625 -0.234375 -0.484375 -0.421875l-0.453125 -0.234375l-0.046875 -0.125l0.390625 -0.671875q0.09375 -0.140625 0.15625 -0.21875q0.0625 -0.078125 0.171875 -0.078125q0.109375 0 0.328125 0.125q0.421875 0.234375 0.65625 0.671875q0.234375 0.421875 0.234375 0.90625q0 0.71875 -0.4375 1.328125q-0.421875 0.609375 -1.40625 1.078125zm6.492157 0.328125l0 -0.203125l0.84375 -0.4375l0 -7.03125l-0.796875 -0.6875l0 -0.09375l1.640625 -0.734375l0.078125 0l0.109375 0.8125l0.09375 0q0.515625 -0.4375 0.96875 -0.625q0.46875 -0.1875 1.015625 -0.1875q0.6875 0 1.203125 0.34375q0.515625 0.34375 0.8125 0.984375q0.3125 0.625 0.3125 1.5q0 1.09375 -0.40625 1.859375q-0.40625 0.765625 -1.109375 1.171875q-0.6875 0.40625 -1.515625 0.40625q-0.75 0 -1.34375 -0.140625l0 2.421875l0.9375 0.4375l0 0.203125l-2.84375 0zm3.21875 -8.28125q-0.3125 0 -0.65625 0.109375q-0.34375 0.09375 -0.65625 0.296875l0 3.75q0.40625 0.3125 0.8125 0.4375q0.40625 0.125 0.921875 0.125q0.640625 0 1.09375 -0.546875q0.46875 -0.546875 0.46875 -1.8125q0 -0.8125 -0.265625 -1.328125q-0.265625 -0.53125 -0.71875 -0.78125q-0.453125 -0.25 -1.0 -0.25zm4.385147 5.21875l0 -0.21875l0.84375 -0.421875l0 -3.96875l-0.796875 -0.6875l0 -0.09375l1.65625 -0.734375l0.078125 0l0.109375 1.125l0.0625 0q0.3125 -0.484375 0.5625 -0.734375q0.265625 -0.25 0.484375 -0.3125q0.234375 -0.078125 0.453125 -0.078125q0.109375 0 0.25 0.046875q0.140625 0.03125 0.234375 0.0625q0.140625 0.078125 0.265625 0.171875q0.140625 0.09375 0.140625 0.203125q0 0.125 -0.0625 0.25l-0.265625 0.640625l-0.09375 0l-0.5 -0.1875q-0.15625 -0.078125 -0.296875 -0.078125q-0.140625 -0.015625 -0.265625 -0.015625q-0.5625 0 -0.953125 0.5625l0 3.828125l0.953125 0.421875l0 0.21875l-2.859375 0zm8.0568695 0.140625q-1.296875 0 -2.046875 -0.78125q-0.734375 -0.796875 -0.734375 -2.09375q0 -1.0 0.390625 -1.765625q0.390625 -0.765625 1.03125 -1.1875q0.65625 -0.4375 1.40625 -0.4375q1.0625 0 1.65625 0.734375q0.609375 0.71875 0.609375 2.09375l-0.0625 0.078125l-3.984375 0q0.015625 0.609375 0.234375 1.15625q0.234375 0.53125 0.734375 0.875q0.5 0.328125 1.34375 0.328125q0.734375 0 1.71875 -0.546875l0.03125 0l0 0.140625q-0.296875 0.578125 -0.90625 1.0q-0.609375 0.40625 -1.421875 0.40625zm-0.15625 -5.6875q-0.640625 0 -1.046875 0.453125q-0.40625 0.4375 -0.5 1.25l3.015625 0q-0.15625 -0.90625 -0.53125 -1.296875q-0.359375 -0.40625 -0.9375 -0.40625zm3.7945557 8.609375l0 -0.203125l0.84375 -0.4375l0 -7.03125l-0.796875 -0.6875l0 -0.09375l1.640625 -0.734375l0.078125 0l0.109375 0.8125l0.09375 0q0.515625 -0.4375 0.96875 -0.625q0.46875 -0.1875 1.015625 -0.1875q0.6875 0 1.203125 0.34375q0.515625 0.34375 0.8125 0.984375q0.3125 0.625 0.3125 1.5q0 1.09375 -0.40625 1.859375q-0.40625 0.765625 -1.109375 1.171875q-0.6875 0.40625 -1.515625 0.40625q-0.75 0 -1.34375 -0.140625l0 2.421875l0.9375 0.4375l0 0.203125l-2.84375 0zm3.21875 -8.28125q-0.3125 0 -0.65625 0.109375q-0.34375 0.09375 -0.65625 0.296875l0 3.75q0.40625 0.3125 0.8125 0.4375q0.40625 0.125 0.921875 0.125q0.640625 0 1.09375 -0.546875q0.46875 -0.546875 0.46875 -1.8125q0 -0.8125 -0.265625 -1.328125q-0.265625 -0.53125 -0.71875 -0.78125q-0.453125 -0.25 -1.0 -0.25zm4.385132 5.21875l0 -0.21875l0.84375 -0.421875l0 -3.96875l-0.796875 -0.6875l0 -0.09375l1.65625 -0.734375l0.078125 0l0.109375 1.125l0.0625 0q0.3125 -0.484375 0.5625 -0.734375q0.265625 -0.25 0.484375 -0.3125q0.234375 -0.078125 0.453125 -0.078125q0.109375 0 0.25 0.046875q0.140625 0.03125 0.234375 0.0625q0.140625 0.078125 0.265625 0.171875q0.140625 0.09375 0.140625 0.203125q0 0.125 -0.0625 0.25l-0.265625 0.640625l-0.09375 0l-0.5 -0.1875q-0.15625 -0.078125 -0.296875 -0.078125q-0.140625 -0.015625 -0.265625 -0.015625q-0.5625 0 -0.953125 0.5625l0 3.828125l0.953125 0.421875l0 0.21875l-2.859375 0zm8.19751 0.140625q-0.875 0 -1.53125 -0.40625q-0.65625 -0.421875 -1.03125 -1.125q-0.359375 -0.71875 -0.359375 -1.609375q0 -0.890625 0.359375 -1.59375q0.375 -0.703125 1.03125 -1.109375q0.65625 -0.421875 1.53125 -0.421875q0.890625 0 1.546875 0.421875q0.65625 0.40625 1.015625 1.109375q0.375 0.703125 0.375 1.59375q0 0.890625 -0.375 1.609375q-0.359375 0.703125 -1.015625 1.125q-0.65625 0.40625 -1.546875 0.40625zm0.1875 -0.578125q0.53125 0 0.875 -0.328125q0.359375 -0.34375 0.515625 -0.859375q0.15625 -0.53125 0.15625 -1.109375q0 -0.703125 -0.203125 -1.359375q-0.1875 -0.65625 -0.609375 -1.0625q-0.40625 -0.421875 -1.078125 -0.421875q-0.546875 0 -0.890625 0.34375q-0.34375 0.328125 -0.515625 0.859375q-0.171875 0.515625 -0.171875 1.09375q0 0.703125 0.203125 1.359375q0.203125 0.65625 0.625 1.078125q0.4375 0.40625 1.09375 0.40625zm6.8690186 0.578125q-1.296875 0 -2.046875 -0.78125q-0.734375 -0.796875 -0.734375 -2.09375q0 -1.0 0.40625 -1.765625q0.40625 -0.765625 1.09375 -1.1875q0.6875 -0.4375 1.5625 -0.4375q0.53125 0 1.03125 0.1875q0.515625 0.171875 0.78125 0.453125q0.203125 0.265625 0.203125 0.40625q0 0.1875 -0.171875 0.3125l-0.5 0.4375l-0.09375 0l-0.453125 -0.609375q-0.203125 -0.28125 -0.5 -0.4375q-0.296875 -0.171875 -0.734375 -0.171875q-0.734375 0 -1.15625 0.578125q-0.421875 0.578125 -0.421875 1.625q0 0.640625 0.203125 1.203125q0.21875 0.5625 0.71875 0.921875q0.5 0.359375 1.390625 0.359375q0.734375 0 1.71875 -0.546875l0.03125 0l0 0.140625q-0.296875 0.578125 -0.90625 1.0q-0.609375 0.40625 -1.421875 0.40625zm6.3841553 0q-1.296875 0 -2.046875 -0.78125q-0.734375 -0.796875 -0.734375 -2.09375q0 -1.0 0.390625 -1.765625q0.390625 -0.765625 1.03125 -1.1875q0.65625 -0.4375 1.40625 -0.4375q1.0625 0 1.65625 0.734375q0.609375 0.71875 0.609375 2.09375l-0.0625 0.078125l-3.984375 0q0.015625 0.609375 0.234375 1.15625q0.234375 0.53125 0.734375 0.875q0.5 0.328125 1.34375 0.328125q0.734375 0 1.71875 -0.546875l0.03125 0l0 0.140625q-0.296875 0.578125 -0.90625 1.0q-0.609375 0.40625 -1.421875 0.40625zm-0.15625 -5.6875q-0.640625 0 -1.046875 0.453125q-0.40625 0.4375 -0.5 1.25l3.015625 0q-0.15625 -0.90625 -0.53125 -1.296875q-0.359375 -0.40625 -0.9375 -0.40625zm5.9976807 5.6875q-0.625 0 -1.078125 -0.109375q-0.453125 -0.109375 -0.921875 -0.34375l0 -1.5l0.1875 0l0.421875 0.734375q0.40625 0.734375 1.34375 0.734375q0.53125 0 0.828125 -0.25q0.3125 -0.265625 0.3125 -0.703125q0 -0.375 -0.1875 -0.59375q-0.1875 -0.21875 -0.53125 -0.375q-0.34375 -0.171875 -0.8125 -0.390625q-0.671875 -0.296875 -1.046875 -0.65625q-0.359375 -0.375 -0.359375 -1.046875q0 -0.484375 0.28125 -0.890625q0.28125 -0.40625 0.703125 -0.640625q0.4375 -0.234375 0.90625 -0.234375q0.5 0 0.90625 0.125q0.421875 0.109375 0.84375 0.328125l0 1.453125l-0.1875 0l-0.4375 -0.71875q-0.234375 -0.359375 -0.5 -0.515625q-0.265625 -0.15625 -0.5625 -0.15625q-0.453125 0 -0.734375 0.234375q-0.265625 0.21875 -0.265625 0.609375q0 0.453125 0.3125 0.6875q0.328125 0.234375 0.953125 0.53125q0.375 0.1875 0.75 0.375q0.390625 0.1875 0.625 0.53125q0.25 0.328125 0.25 0.96875q0 0.578125 -0.3125 0.984375q-0.3125 0.40625 -0.78125 0.625q-0.46875 0.203125 -0.90625 0.203125zm5.757721 0q-0.625 0 -1.078125 -0.109375q-0.453125 -0.109375 -0.921875 -0.34375l0 -1.5l0.1875 0l0.421875 0.734375q0.40625 0.734375 1.34375 0.734375q0.53125 0 0.828125 -0.25q0.3125 -0.265625 0.3125 -0.703125q0 -0.375 -0.1875 -0.59375q-0.1875 -0.21875 -0.53125 -0.375q-0.34375 -0.171875 -0.8125 -0.390625q-0.671875 -0.296875 -1.046875 -0.65625q-0.359375 -0.375 -0.359375 -1.046875q0 -0.484375 0.28125 -0.890625q0.28125 -0.40625 0.703125 -0.640625q0.4375 -0.234375 0.90625 -0.234375q0.5 0 0.90625 0.125q0.421875 0.109375 0.84375 0.328125l0 1.453125l-0.1875 0l-0.4375 -0.71875q-0.234375 -0.359375 -0.5 -0.515625q-0.265625 -0.15625 -0.5625 -0.15625q-0.453125 0 -0.734375 0.234375q-0.265625 0.21875 -0.265625 0.609375q0 0.453125 0.3125 0.6875q0.328125 0.234375 0.953125 0.53125q0.375 0.1875 0.75 0.375q0.390625 0.1875 0.625 0.53125q0.25 0.328125 0.25 0.96875q0 0.578125 -0.3125 0.984375q-0.3125 0.40625 -0.78125 0.625q-0.46875 0.203125 -0.90625 0.203125zm2.9765015 1.859375l0 -0.046875q0.53125 -0.859375 0.890625 -1.75q0.375 -0.890625 0.5625 -1.90625q0.1875 -1.015625 0.1875 -2.234375q0 -1.8125 -0.421875 -3.203125q-0.421875 -1.40625 -1.21875 -2.6875l0 -0.03125l0.28125 0q1.0625 1.296875 1.65625 2.796875q0.59375 1.484375 0.59375 3.125q0 1.65625 -0.59375 3.140625q-0.59375 1.484375 -1.65625 2.796875l-0.28125 0z" fill-rule="nonzero"></path><path fill="#9fc5e8" d="m362.85828 251.50952l0 0c0 -9.283203 7.5255127 -16.808731 16.808716 -16.808731l156.71326 0c4.457947 0 8.733337 1.7709198 11.885559 4.9231567c3.1522827 3.1522522 4.9231567 7.4276276 4.9231567 11.885574l0 67.23291c0 9.283234 -7.5255127 16.808746 -16.808716 16.808746l-156.71326 0l0 0c-9.283203 0 -16.808716 -7.5255127 -16.808716 -16.808746z" fill-rule="evenodd"></path><path stroke="#000000" stroke-width="1.0" stroke-linejoin="round" stroke-linecap="butt" d="m362.85828 251.50952l0 0c0 -9.283203 7.5255127 -16.808731 16.808716 -16.808731l156.71326 0c4.457947 0 8.733337 1.7709198 11.885559 4.9231567c3.1522827 3.1522522 4.9231567 7.4276276 4.9231567 11.885574l0 67.23291c0 9.283234 -7.5255127 16.808746 -16.808716 16.808746l-156.71326 0l0 0c-9.283203 0 -16.808716 -7.5255127 -16.808716 -16.808746z" fill-rule="evenodd"></path><path fill="#000000" d="m432.74817 293.88474q-1.53125 0 -2.828125 -0.546875q-1.28125 -0.546875 -2.25 -1.515625q-0.953125 -0.96875 -1.484375 -2.28125q-0.53125 -1.328125 -0.53125 -2.90625q0 -1.578125 0.53125 -2.90625q0.53125 -1.328125 1.484375 -2.296875q0.96875 -0.96875 2.25 -1.515625q1.296875 -0.546875 2.828125 -0.546875q1.53125 0 2.828125 0.546875q1.3125 0.546875 2.265625 1.515625q0.96875 0.96875 1.5 2.296875q0.53125 1.328125 0.53125 2.90625q0 1.578125 -0.53125 2.90625q-0.53125 1.3125 -1.5 2.28125q-0.953125 0.96875 -2.265625 1.515625q-1.296875 0.546875 -2.828125 0.546875zm0.453125 -1.078125q1.359375 0 2.390625 -0.671875q1.046875 -0.6875 1.625 -1.921875q0.59375 -1.234375 0.59375 -2.921875q0 -2.078125 -0.734375 -3.609375q-0.71875 -1.546875 -1.953125 -2.40625q-1.21875 -0.859375 -2.734375 -0.859375q-1.359375 0 -2.421875 0.671875q-1.0625 0.671875 -1.65625 1.921875q-0.59375 1.234375 -0.59375 2.921875q0 2.0625 0.734375 3.625q0.734375 1.546875 1.96875 2.40625q1.234375 0.84375 2.78125 0.84375zm16.696259 1.078125q-2.171875 0 -3.75 -0.890625q-1.578125 -0.90625 -2.4375 -2.453125q-0.84375 -1.546875 -0.84375 -3.53125q0 -1.515625 0.578125 -2.890625q0.59375 -1.375 1.59375 -2.4375q1.015625 -1.0625 2.34375 -1.6875q1.34375 -0.625 2.828125 -0.625q1.078125 0 1.8125 0.140625q0.75 0.140625 1.328125 0.375q0.59375 0.21875 1.203125 0.515625l0.09375 3.734375l-0.375 0l-1.296875 -2.609375q-0.8125 -0.578125 -1.421875 -0.828125q-0.609375 -0.25 -1.375 -0.25q-1.546875 0 -2.75 0.765625q-1.203125 0.765625 -1.90625 2.109375q-0.6875 1.328125 -0.6875 3.046875q0 2.03125 0.671875 3.46875q0.671875 1.4375 1.8125 2.203125q1.15625 0.75 2.53125 0.75q1.171875 0 1.96875 -0.328125q0.8125 -0.328125 1.421875 -0.734375l1.28125 -2.28125l0.359375 0l-0.234375 3.390625q-0.609375 0.3125 -1.265625 0.546875q-0.640625 0.234375 -1.484375 0.359375q-0.828125 0.140625 -2.0 0.140625zm10.281158 0q-1.0 0 -1.671875 -0.578125q-0.65625 -0.59375 -0.65625 -1.640625q0 -1.046875 0.78125 -1.8125q0.78125 -0.765625 2.609375 -1.203125l2.03125 -0.46875l0 -1.546875q0 -0.734375 -0.59375 -1.25q-0.578125 -0.53125 -1.328125 -0.53125q-0.8125 0 -1.140625 0.4375q-0.3125 0.4375 -0.3125 1.171875l0 0.59375l-0.109375 0.109375l-1.109375 0q-0.3125 0 -0.4375 -0.109375q-0.109375 -0.109375 -0.109375 -0.5q0 -0.46875 0.265625 -0.953125q0.28125 -0.484375 0.859375 -0.859375q0.59375 -0.375 1.25 -0.625q0.65625 -0.265625 1.40625 -0.265625q0.734375 0 1.453125 0.21875q0.71875 0.203125 1.15625 0.71875q0.453125 0.5 0.453125 1.390625l0 6.0625q0.15625 0.140625 0.421875 0.25q0.28125 0.109375 0.78125 0.109375l0.796875 0l0.0625 0.03125l0 0.078125q-0.25 0.46875 -0.75 0.828125q-0.5 0.34375 -1.21875 0.34375q-0.671875 0 -1.09375 -0.34375q-0.40625 -0.359375 -0.578125 -0.9375l-0.125 0q-0.5625 0.546875 -1.390625 0.921875q-0.8125 0.359375 -1.703125 0.359375zm-0.65625 -2.65625q0 1.328125 1.59375 1.328125q0.515625 0 1.015625 -0.109375q0.5 -0.109375 1.140625 -0.375l0 -3.15625q-1.703125 0.3125 -2.5 0.671875q-0.78125 0.34375 -1.015625 0.75q-0.234375 0.40625 -0.234375 0.890625zm8.788849 2.4375l0 -0.34375l1.34375 -0.6875l0 -6.34375l-1.28125 -1.109375l0 -0.15625l2.640625 -1.171875l0.125 0l0.1875 1.578125l0.109375 0q0.796875 -0.8125 1.53125 -1.1875q0.734375 -0.390625 1.609375 -0.390625q1.015625 0 1.734375 0.46875q0.734375 0.453125 0.953125 1.359375l0.0625 0q0.890625 -0.9375 1.671875 -1.375q0.78125 -0.453125 1.71875 -0.453125q1.1875 0 1.96875 0.640625q0.78125 0.625 0.78125 1.859375l0 6.28125l1.34375 0.6875l0 0.34375l-4.5625 0l0 -0.34375l1.515625 -0.6875l0 -5.28125q0 -0.9375 -0.578125 -1.421875q-0.5625 -0.5 -1.421875 -0.5q-0.734375 0 -1.375 0.234375q-0.640625 0.234375 -1.0625 0.703125l0 6.265625l1.46875 0.6875l0 0.34375l-4.609375 0l0 -0.34375l1.4375 -0.6875l0 -5.28125q0 -0.9375 -0.578125 -1.421875q-0.5625 -0.5 -1.4375 -0.5q-0.53125 0 -1.1875 0.203125q-0.65625 0.1875 -1.0625 0.546875l0 6.453125l1.375 0.6875l0 0.34375l-4.421875 0zm18.248505 0l0 -0.34375l1.34375 -0.6875l0 -12.53125l-1.28125 -1.109375l0 -0.15625l2.859375 -1.171875l0.125 0l0 14.96875l1.34375 0.6875l0 0.34375l-4.390625 0z" fill-rule="nonzero"></path><path fill="#000000" fill-opacity="0.0" d="m248.95276 177.4252c0 53.85826 56.960632 107.71652 113.921265 107.71652" fill-rule="evenodd"></path><path stroke="#ffffff" stroke-width="1.0" stroke-linejoin="round" stroke-linecap="butt" d="m248.95276 177.4252c0 26.929123 14.240143 53.85826 35.600403 74.055115c10.680115 10.098419 23.140259 18.513763 36.490387 24.404541c6.6750793 2.9453735 13.572662 5.2595825 20.581482 6.8374634c3.5043945 0.7889404 7.036621 1.3937683 10.582764 1.8013916c1.7731018 0.2038269 3.5496216 0.35830688 5.327881 0.46188354c0.4446106 0.025878906 0.8892822 0.048583984 1.3340454 0.0680542l0.5778198 0.023254395" fill-rule="evenodd"></path><path fill="#ffffff" stroke="#ffffff" stroke-width="1.0" stroke-linecap="butt" d="m359.44754 285.0769l-1.1456604 1.1031189l3.1105042 -1.0659485l-3.0679626 -1.1828308z" fill-rule="evenodd"></path><path fill="#e6b8af" d="m587.3182 75.18669l0 0c0 -9.283211 7.5255127 -16.808739 16.808716 -16.808739l156.71326 0c4.457947 0 8.733276 1.770916 11.885559 4.9231644c3.1522217 3.1522522 4.9231567 7.42762 4.9231567 11.885574l0 67.232925c0 9.283203 -7.5255127 16.808731 -16.808716 16.808731l-156.71326 0l0 0c-9.283203 0 -16.808716 -7.525528 -16.808716 -16.808731z" fill-rule="evenodd"></path><path stroke="#000000" stroke-width="1.0" stroke-linejoin="round" stroke-linecap="butt" d="m587.3182 75.18669l0 0c0 -9.283211 7.5255127 -16.808739 16.808716 -16.808739l156.71326 0c4.457947 0 8.733276 1.770916 11.885559 4.9231644c3.1522217 3.1522522 4.9231567 7.42762 4.9231567 11.885574l0 67.232925c0 9.283203 -7.5255127 16.808731 -16.808716 16.808731l-156.71326 0l0 0c-9.283203 0 -16.808716 -7.525528 -16.808716 -16.808731z" fill-rule="evenodd"></path><path fill="#000000" d="m623.35535 108.28315l0 -0.34375l1.703125 -0.84375l0 -11.6875l-1.703125 -0.859375l0 -0.34375l5.390625 0q1.40625 0 2.515625 0.359375q1.125 0.34375 1.765625 1.046875q0.640625 0.6875 0.640625 1.75q0 1.09375 -0.71875 2.0q-0.71875 0.90625 -2.09375 1.28125q1.90625 0.265625 2.96875 1.1875q1.0625 0.921875 1.0625 2.359375q0 1.171875 -0.734375 2.109375q-0.734375 0.921875 -2.015625 1.453125q-1.28125 0.53125 -2.90625 0.53125l-5.875 0zm4.90625 -12.90625l-1.28125 0l0 5.0625l1.40625 0q1.515625 0 2.359375 -0.65625q0.859375 -0.65625 0.859375 -1.828125q0 -2.578125 -3.34375 -2.578125zm0.8125 6.234375l-2.09375 0l0 5.5l2.234375 0q1.6875 0 2.640625 -0.765625q0.96875 -0.765625 0.96875 -1.984375q0 -1.453125 -0.96875 -2.09375q-0.96875 -0.65625 -2.78125 -0.65625zm11.721436 6.890625q-1.25 0 -2.0625 -0.625q-0.796875 -0.640625 -0.796875 -1.875l0 -6.3125l-1.34375 -0.65625l0 -0.34375l3.046875 0l0 6.3125q0 0.9375 0.578125 1.4375q0.59375 0.484375 1.546875 0.484375q0.5625 0 1.25 -0.1875q0.703125 -0.203125 1.109375 -0.5625l0 -6.484375l-1.515625 -0.65625l0 -0.34375l3.21875 0l0 8.640625l1.515625 0.609375l0 0.34375l-3.21875 0l0 -1.34375l-0.109375 0q-0.8125 0.8125 -1.578125 1.1875q-0.75 0.375 -1.640625 0.375zm12.699524 0q-2.078125 0 -3.28125 -1.25q-1.1875 -1.265625 -1.1875 -3.34375q0 -1.59375 0.65625 -2.8125q0.65625 -1.234375 1.75 -1.921875q1.109375 -0.703125 2.5 -0.703125q0.859375 0 1.671875 0.296875q0.8125 0.28125 1.234375 0.75q0.34375 0.40625 0.34375 0.640625q0 0.296875 -0.28125 0.515625l-0.8125 0.671875l-0.140625 0l-0.734375 -0.96875q-0.3125 -0.4375 -0.796875 -0.703125q-0.484375 -0.265625 -1.1875 -0.265625q-1.171875 0 -1.84375 0.9375q-0.671875 0.921875 -0.671875 2.578125q0 1.03125 0.34375 1.9375q0.34375 0.90625 1.140625 1.46875q0.796875 0.5625 2.203125 0.5625q1.171875 0 2.75 -0.84375l0.0625 0l0 0.203125q-0.484375 0.921875 -1.453125 1.59375q-0.96875 0.65625 -2.265625 0.65625zm5.7161865 -0.21875l0 -0.34375l1.34375 -0.6875l0 -12.53125l-1.28125 -1.109375l0 -0.15625l2.859375 -1.171875l0.125 0l0 10.5625l3.421875 -2.921875l0 -0.125l-1.03125 -0.765625l0 -0.34375l4.046875 0l0 0.34375l-1.359375 0.734375l-3.53125 2.71875l4.3125 4.734375l1.359375 0.71875l0 0.34375l-2.8125 0l-0.8125 -1.109375l-3.59375 -4.015625l0 4.171875l1.515625 0.609375l0 0.34375l-4.5625 0zm11.807434 0l0 -0.34375l1.34375 -0.6875l0 -12.53125l-1.28125 -1.109375l0 -0.15625l2.859375 -1.171875l0.125 0l0 14.96875l1.34375 0.6875l0 0.34375l-4.390625 0zm10.864197 0.21875q-2.078125 0 -3.28125 -1.25q-1.1875 -1.265625 -1.1875 -3.34375q0 -1.59375 0.625 -2.8125q0.640625 -1.234375 1.671875 -1.921875q1.03125 -0.703125 2.25 -0.703125q1.6875 0 2.65625 1.171875q0.96875 1.171875 0.96875 3.375l-0.109375 0.109375l-6.375 0q0.015625 0.96875 0.375 1.84375q0.375 0.859375 1.171875 1.390625q0.796875 0.53125 2.140625 0.53125q1.171875 0 2.75 -0.84375l0.0625 0l0 0.203125q-0.484375 0.921875 -1.453125 1.59375q-0.96875 0.65625 -2.265625 0.65625zm-0.265625 -9.09375q-1.015625 0 -1.671875 0.71875q-0.65625 0.71875 -0.796875 2.015625l4.8125 0q-0.234375 -1.453125 -0.828125 -2.09375q-0.578125 -0.640625 -1.515625 -0.640625zm10.682251 9.09375q-1.3125 0 -2.234375 -0.25q-0.921875 -0.25 -1.890625 -0.734375l-0.21875 -3.5l0.34375 0l1.046875 2.265625q0.765625 0.640625 1.484375 0.921875q0.734375 0.28125 1.46875 0.28125q1.265625 0 1.96875 -0.65625q0.71875 -0.65625 0.71875 -1.78125q0 -0.953125 -0.421875 -1.484375q-0.40625 -0.53125 -1.1875 -0.9375q-0.78125 -0.421875 -1.84375 -0.953125q-1.0 -0.515625 -1.703125 -1.0q-0.703125 -0.5 -1.0625 -1.140625q-0.359375 -0.65625 -0.359375 -1.640625q0 -0.71875 0.34375 -1.40625q0.359375 -0.703125 0.953125 -1.265625q0.609375 -0.5625 1.359375 -0.890625q0.765625 -0.34375 1.578125 -0.34375q0.984375 0 1.8125 0.234375q0.828125 0.234375 1.703125 0.671875l0.21875 3.40625l-0.34375 0l-0.984375 -2.234375q-0.734375 -0.5625 -1.296875 -0.796875q-0.546875 -0.25 -1.28125 -0.25q-0.9375 0 -1.546875 0.640625q-0.609375 0.640625 -0.609375 1.578125q0 1.09375 0.65625 1.703125q0.671875 0.59375 2.078125 1.28125q1.296875 0.640625 2.125 1.1875q0.84375 0.546875 1.25 1.25q0.40625 0.703125 0.40625 1.78125q0 1.0 -0.4375 1.765625q-0.421875 0.75 -1.09375 1.265625q-0.671875 0.515625 -1.46875 0.78125q-0.796875 0.25 -1.53125 0.25zm11.231567 0q-2.078125 0 -3.28125 -1.25q-1.1875 -1.265625 -1.1875 -3.34375q0 -1.59375 0.65625 -2.8125q0.65625 -1.234375 1.75 -1.921875q1.109375 -0.703125 2.5 -0.703125q0.859375 0 1.671875 0.296875q0.8125 0.28125 1.234375 0.75q0.34375 0.40625 0.34375 0.640625q0 0.296875 -0.28125 0.515625l-0.8125 0.671875l-0.140625 0l-0.734375 -0.96875q-0.3125 -0.4375 -0.796875 -0.703125q-0.484375 -0.265625 -1.1875 -0.265625q-1.171875 0 -1.84375 0.9375q-0.671875 0.921875 -0.671875 2.578125q0 1.03125 0.34375 1.9375q0.34375 0.90625 1.140625 1.46875q0.796875 0.5625 2.203125 0.5625q1.171875 0 2.75 -0.84375l0.0625 0l0 0.203125q-0.484375 0.921875 -1.453125 1.59375q-0.96875 0.65625 -2.265625 0.65625zm5.7943115 -0.21875l0 -0.34375l1.34375 -0.6875l0 -6.34375l-1.28125 -1.109375l0 -0.15625l2.640625 -1.171875l0.140625 0l0.1875 1.8125l0.078125 0q0.5 -0.78125 0.90625 -1.171875q0.421875 -0.40625 0.78125 -0.515625q0.359375 -0.125 0.734375 -0.125q0.15625 0 0.375 0.0625q0.234375 0.0625 0.390625 0.125q0.234375 0.109375 0.4375 0.265625q0.203125 0.140625 0.203125 0.34375q0 0.1875 -0.09375 0.375l-0.421875 1.046875l-0.15625 0l-0.8125 -0.3125q-0.234375 -0.109375 -0.453125 -0.125q-0.21875 -0.03125 -0.4375 -0.03125q-0.890625 0 -1.515625 0.921875l0 6.109375l1.515625 0.6875l0 0.34375l-4.5625 0zm10.63916 -12.390625q-0.546875 0 -0.921875 -0.375q-0.359375 -0.375 -0.359375 -0.90625q0 -0.546875 0.359375 -0.90625q0.375 -0.375 0.921875 -0.375q0.5625 0 0.921875 0.375q0.359375 0.359375 0.359375 0.90625q0 0.53125 -0.359375 0.90625q-0.359375 0.375 -0.921875 0.375zm-2.125 12.390625l0 -0.34375l1.34375 -0.6875l0 -6.34375l-1.28125 -1.109375l0 -0.15625l2.859375 -1.171875l0.125 0l0 8.78125l1.34375 0.6875l0 0.34375l-4.390625 0zm6.55072 4.90625l0 -0.34375l1.34375 -0.6875l0 -11.25l-1.28125 -1.109375l0 -0.15625l2.640625 -1.171875l0.125 0l0.171875 1.296875l0.15625 0q0.796875 -0.671875 1.546875 -0.984375q0.75 -0.3125 1.625 -0.3125q1.09375 0 1.921875 0.5625q0.828125 0.546875 1.296875 1.5625q0.484375 1.015625 0.484375 2.421875q0 1.75 -0.65625 2.984375q-0.640625 1.21875 -1.75 1.859375q-1.109375 0.640625 -2.421875 0.640625q-1.203125 0 -2.15625 -0.21875l0 3.875l1.515625 0.6875l0 0.34375l-4.5625 0zm5.15625 -13.25q-0.515625 0 -1.0625 0.171875q-0.546875 0.15625 -1.046875 0.46875l0 6.0q0.640625 0.515625 1.296875 0.703125q0.65625 0.1875 1.46875 0.1875q1.03125 0 1.765625 -0.859375q0.75 -0.859375 0.75 -2.890625q0 -1.328125 -0.421875 -2.15625q-0.421875 -0.828125 -1.15625 -1.21875q-0.71875 -0.40625 -1.59375 -0.40625zm10.34314 8.5625q-0.9375 0 -1.625 -0.546875q-0.671875 -0.5625 -0.671875 -1.5625l0 -6.703125l-1.75 0l0 -0.125l1.8125 -0.875l1.515625 -2.34375l0.125 0l0 2.34375l2.8125 0l0 1.0l-2.8125 0l0 6.328125q0 0.5625 0.484375 0.828125q0.484375 0.25 1.15625 0.25q0.40625 0 0.75 -0.046875q0.359375 -0.046875 0.609375 -0.109375l0.0625 0l0 0.21875q-0.203125 0.484375 -0.84375 0.921875q-0.625 0.421875 -1.625 0.421875z" fill-rule="nonzero"></path><path fill="#000000" d="m639.3261 128.60315q-1.046875 -1.3125 -1.65625 -2.796875q-0.59375 -1.484375 -0.59375 -3.140625q0 -1.640625 0.59375 -3.125q0.609375 -1.5 1.65625 -2.796875l0.28125 0l0 0.03125q-0.796875 1.28125 -1.21875 2.6875q-0.421875 1.390625 -0.421875 3.203125q0 1.21875 0.1875 2.234375q0.1875 1.015625 0.546875 1.90625q0.375 0.890625 0.90625 1.75l0 0.046875l-0.28125 0zm3.9413452 -1.859375q-0.875 0 -1.53125 -0.40625q-0.65625 -0.421875 -1.03125 -1.125q-0.359375 -0.71875 -0.359375 -1.609375q0 -0.890625 0.359375 -1.59375q0.375 -0.703125 1.03125 -1.109375q0.65625 -0.421875 1.53125 -0.421875q0.890625 0 1.546875 0.421875q0.65625 0.40625 1.015625 1.109375q0.375 0.703125 0.375 1.59375q0 0.890625 -0.375 1.609375q-0.359375 0.703125 -1.015625 1.125q-0.65625 0.40625 -1.546875 0.40625zm0.1875 -0.578125q0.53125 0 0.875 -0.328125q0.359375 -0.34375 0.515625 -0.859375q0.15625 -0.53125 0.15625 -1.109375q0 -0.703125 -0.203125 -1.359375q-0.1875 -0.65625 -0.609375 -1.0625q-0.40625 -0.421875 -1.078125 -0.421875q-0.546875 0 -0.890625 0.34375q-0.34375 0.328125 -0.515625 0.859375q-0.171875 0.515625 -0.171875 1.09375q0 0.703125 0.203125 1.359375q0.203125 0.65625 0.625 1.078125q0.4375 0.40625 1.09375 0.40625zm4.0565796 3.5l0 -0.203125l0.84375 -0.4375l0 -7.03125l-0.796875 -0.6875l0 -0.09375l1.640625 -0.734375l0.078125 0l0.109375 0.8125l0.09375 0q0.515625 -0.4375 0.96875 -0.625q0.46875 -0.1875 1.015625 -0.1875q0.6875 0 1.203125 0.34375q0.515625 0.34375 0.8125 0.984375q0.3125 0.625 0.3125 1.5q0 1.09375 -0.40625 1.859375q-0.40625 0.765625 -1.109375 1.171875q-0.6875 0.40625 -1.515625 0.40625q-0.75 0 -1.34375 -0.140625l0 2.421875l0.9375 0.4375l0 0.203125l-2.84375 0zm3.21875 -8.28125q-0.3125 0 -0.65625 0.109375q-0.34375 0.09375 -0.65625 0.296875l0 3.75q0.40625 0.3125 0.8125 0.4375q0.40625 0.125 0.921875 0.125q0.640625 0 1.09375 -0.546875q0.46875 -0.546875 0.46875 -1.8125q0 -0.8125 -0.265625 -1.328125q-0.265625 -0.53125 -0.71875 -0.78125q-0.453125 -0.25 -1.0 -0.25zm6.463257 5.359375q-0.578125 0 -1.015625 -0.34375q-0.421875 -0.359375 -0.421875 -0.984375l0 -4.1875l-1.09375 0l0 -0.078125l1.140625 -0.546875l0.9375 -1.46875l0.09375 0l0 1.46875l1.75 0l0 0.625l-1.75 0l0 3.96875q0 0.34375 0.296875 0.5q0.3125 0.15625 0.71875 0.15625q0.25 0 0.46875 -0.015625q0.234375 -0.03125 0.390625 -0.078125l0.03125 0l0 0.140625q-0.125 0.296875 -0.515625 0.578125q-0.390625 0.265625 -1.03125 0.265625zm3.9993896 -7.890625q-0.34375 0 -0.578125 -0.21875q-0.21875 -0.234375 -0.21875 -0.578125q0 -0.34375 0.21875 -0.5625q0.234375 -0.234375 0.578125 -0.234375q0.359375 0 0.578125 0.234375q0.234375 0.21875 0.234375 0.5625q0 0.34375 -0.234375 0.578125q-0.21875 0.21875 -0.578125 0.21875zm-1.328125 7.75l0 -0.21875l0.84375 -0.421875l0 -3.96875l-0.796875 -0.6875l0 -0.09375l1.78125 -0.734375l0.078125 0l0 5.484375l0.84375 0.421875l0 0.21875l-2.75 0zm4.093567 0l0 -0.21875l0.84375 -0.421875l0 -3.96875l-0.796875 -0.6875l0 -0.09375l1.640625 -0.734375l0.078125 0l0.125 0.984375l0.0625 0q0.5 -0.515625 0.953125 -0.75q0.46875 -0.234375 1.015625 -0.234375q0.640625 0 1.09375 0.28125q0.453125 0.28125 0.578125 0.859375l0.046875 0q0.5625 -0.59375 1.046875 -0.859375q0.484375 -0.28125 1.0625 -0.28125q0.75 0 1.234375 0.390625q0.484375 0.390625 0.484375 1.15625l0 3.9375l0.84375 0.421875l0 0.21875l-2.84375 0l0 -0.21875l0.9375 -0.421875l0 -3.296875q0 -0.59375 -0.359375 -0.890625q-0.34375 -0.3125 -0.890625 -0.3125q-0.453125 0 -0.859375 0.15625q-0.390625 0.140625 -0.65625 0.421875l0 3.921875l0.921875 0.421875l0 0.21875l-2.890625 0l0 -0.21875l0.90625 -0.421875l0 -3.296875q0 -0.59375 -0.359375 -0.890625q-0.359375 -0.3125 -0.90625 -0.3125q-0.328125 0 -0.75 0.125q-0.40625 0.109375 -0.65625 0.34375l0 4.03125l0.859375 0.421875l0 0.21875l-2.765625 0zm12.868408 -7.75q-0.34375 0 -0.578125 -0.21875q-0.21875 -0.234375 -0.21875 -0.578125q0 -0.34375 0.21875 -0.5625q0.234375 -0.234375 0.578125 -0.234375q0.359375 0 0.578125 0.234375q0.234375 0.21875 0.234375 0.5625q0 0.34375 -0.234375 0.578125q-0.21875 0.21875 -0.578125 0.21875zm-1.328125 7.75l0 -0.21875l0.84375 -0.421875l0 -3.96875l-0.796875 -0.6875l0 -0.09375l1.78125 -0.734375l0.078125 0l0 5.484375l0.84375 0.421875l0 0.21875l-2.75 0zm4.390442 0l0 -0.234375l3.0 -5.171875l-2.203125 0l-0.59375 1.328125l-0.21875 0l0.140625 -2.046875l0.078125 0q0.171875 0.03125 0.421875 0.078125q0.25 0.046875 0.40625 0.046875l3.34375 0l0 0.25l-3.0 5.15625l2.40625 0l0.5 -1.421875l0.203125 0l0 2.015625l-4.484375 0zm8.939758 0.140625q-1.296875 0 -2.046875 -0.78125q-0.734375 -0.796875 -0.734375 -2.09375q0 -1.0 0.390625 -1.765625q0.390625 -0.765625 1.03125 -1.1875q0.65625 -0.4375 1.40625 -0.4375q1.0625 0 1.65625 0.734375q0.609375 0.71875 0.609375 2.09375l-0.0625 0.078125l-3.984375 0q0.015625 0.609375 0.234375 1.15625q0.234375 0.53125 0.734375 0.875q0.5 0.328125 1.34375 0.328125q0.734375 0 1.71875 -0.546875l0.03125 0l0 0.140625q-0.296875 0.578125 -0.90625 1.0q-0.609375 0.40625 -1.421875 0.40625zm-0.15625 -5.6875q-0.640625 0 -1.046875 0.453125q-0.40625 0.4375 -0.5 1.25l3.015625 0q-0.15625 -0.90625 -0.53125 -1.296875q-0.359375 -0.40625 -0.9375 -0.40625zm3.9663696 8.28125l0 -0.28125q0.5625 -0.296875 0.8125 -0.671875q0.25 -0.375 0.25 -0.78125q0 -0.375 -0.171875 -0.625q-0.15625 -0.234375 -0.484375 -0.421875l-0.453125 -0.234375l-0.046875 -0.125l0.390625 -0.671875q0.09375 -0.140625 0.15625 -0.21875q0.0625 -0.078125 0.171875 -0.078125q0.109375 0 0.328125 0.125q0.421875 0.234375 0.65625 0.671875q0.234375 0.421875 0.234375 0.90625q0 0.71875 -0.4375 1.328125q-0.421875 0.609375 -1.40625 1.078125zm9.3046875 -2.59375q-1.296875 0 -2.046875 -0.78125q-0.734375 -0.796875 -0.734375 -2.09375q0 -1.0 0.390625 -1.765625q0.390625 -0.765625 1.03125 -1.1875q0.65625 -0.4375 1.40625 -0.4375q1.0625 0 1.65625 0.734375q0.609375 0.71875 0.609375 2.09375l-0.0625 0.078125l-3.984375 0q0.015625 0.609375 0.234375 1.15625q0.234375 0.53125 0.734375 0.875q0.5 0.328125 1.34375 0.328125q0.734375 0 1.71875 -0.546875l0.03125 0l0 0.140625q-0.296875 0.578125 -0.90625 1.0q-0.609375 0.40625 -1.421875 0.40625zm-0.15625 -5.6875q-0.640625 0 -1.046875 0.453125q-0.40625 0.4375 -0.5 1.25l3.015625 0q-0.15625 -0.90625 -0.53125 -1.296875q-0.359375 -0.40625 -0.9375 -0.40625zm3.7945557 5.546875l0 -0.21875l0.84375 -0.421875l0 -3.96875l-0.796875 -0.6875l0 -0.09375l1.640625 -0.734375l0.078125 0l0.125 0.984375l0.0625 0q0.5 -0.515625 0.953125 -0.75q0.46875 -0.234375 1.015625 -0.234375q0.640625 0 1.09375 0.28125q0.453125 0.28125 0.578125 0.859375l0.046875 0q0.5625 -0.59375 1.046875 -0.859375q0.484375 -0.28125 1.0625 -0.28125q0.75 0 1.234375 0.390625q0.484375 0.390625 0.484375 1.15625l0 3.9375l0.84375 0.421875l0 0.21875l-2.84375 0l0 -0.21875l0.9375 -0.421875l0 -3.296875q0 -0.59375 -0.359375 -0.890625q-0.34375 -0.3125 -0.890625 -0.3125q-0.453125 0 -0.859375 0.15625q-0.390625 0.140625 -0.65625 0.421875l0 3.921875l0.921875 0.421875l0 0.21875l-2.890625 0l0 -0.21875l0.90625 -0.421875l0 -3.296875q0 -0.59375 -0.359375 -0.890625q-0.359375 -0.3125 -0.90625 -0.3125q-0.328125 0 -0.75 0.125q-0.40625 0.109375 -0.65625 0.34375l0 4.03125l0.859375 0.421875l0 0.21875l-2.765625 0zm12.868347 -7.75q-0.34375 0 -0.578125 -0.21875q-0.21875 -0.234375 -0.21875 -0.578125q0 -0.34375 0.21875 -0.5625q0.234375 -0.234375 0.578125 -0.234375q0.359375 0 0.578125 0.234375q0.234375 0.21875 0.234375 0.5625q0 0.34375 -0.234375 0.578125q-0.21875 0.21875 -0.578125 0.21875zm-1.328125 7.75l0 -0.21875l0.84375 -0.421875l0 -3.96875l-0.796875 -0.6875l0 -0.09375l1.78125 -0.734375l0.078125 0l0 5.484375l0.84375 0.421875l0 0.21875l-2.75 0zm6.218567 0.140625q-0.578125 0 -1.015625 -0.34375q-0.421875 -0.359375 -0.421875 -0.984375l0 -4.1875l-1.09375 0l0 -0.078125l1.140625 -0.546875l0.9375 -1.46875l0.09375 0l0 1.46875l1.75 0l0 0.625l-1.75 0l0 3.96875q0 0.34375 0.296875 0.5q0.3125 0.15625 0.71875 0.15625q0.25 0 0.46875 -0.015625q0.234375 -0.03125 0.390625 -0.078125l0.03125 0l0 0.140625q-0.125 0.296875 -0.515625 0.578125q-0.390625 0.265625 -1.03125 0.265625zm2.0150146 1.859375l0 -0.046875q0.53125 -0.859375 0.890625 -1.75q0.375 -0.890625 0.5625 -1.90625q0.1875 -1.015625 0.1875 -2.234375q0 -1.8125 -0.421875 -3.203125q-0.421875 -1.40625 -1.21875 -2.6875l0 -0.03125l0.28125 0q1.0625 1.296875 1.65625 2.796875q0.59375 1.484375 0.59375 3.125q0 1.65625 -0.59375 3.140625q-0.59375 1.484375 -1.65625 2.796875l-0.28125 0z" fill-rule="nonzero"></path><path fill="#000000" fill-opacity="0.0" d="m953.4304 236.09967l0 0c0 -5.992508 4.85791 -10.850403 10.850403 -10.850403l0 0c2.8777466 0 5.6375732 1.1431732 7.6724243 3.178009c2.034851 2.034851 3.1779785 4.794693 3.1779785 7.672394l0 0c0 5.992508 -4.857849 10.850388 -10.850403 10.850388l0 0c-5.9924927 0 -10.850403 -4.8578796 -10.850403 -10.850388z" fill-rule="evenodd"></path><path fill="#000000" fill-opacity="0.0" d="m933.6798 268.09967l0 0c0 -5.992523 4.857849 -10.850403 10.850403 -10.850403l0 0c2.8776855 0 5.637512 1.143158 7.6723633 3.178009c2.034851 2.034851 3.1779785 4.7946777 3.1779785 7.672394l0 0c0 5.9924927 -4.857849 10.850403 -10.850342 10.850403l0 0c-5.9925537 0 -10.850403 -4.85791 -10.850403 -10.850403z" fill-rule="evenodd"></path><path fill="#000000" fill-opacity="0.0" d="m911.979 300.09967l0 0c0 -5.992523 4.85791 -10.850403 10.850403 -10.850403l0 0c2.8776855 0 5.637512 1.143158 7.6723633 3.178009c2.034851 2.034851 3.1780396 4.7946777 3.1780396 7.672394l0 0c0 5.9924927 -4.85791 10.850403 -10.850403 10.850403l0 0c-5.9924927 0 -10.850403 -4.85791 -10.850403 -10.850403z" fill-rule="evenodd"></path><path fill="#000000" fill-opacity="0.0" d="m953.4304 300.09967l0 0c0 -5.992523 4.85791 -10.850403 10.850403 -10.850403l0 0c2.8777466 0 5.6375732 1.143158 7.6724243 3.178009c2.034851 2.034851 3.1779785 4.7946777 3.1779785 7.672394l0 0c0 5.9924927 -4.857849 10.850403 -10.850403 10.850403l0 0c-5.9924927 0 -10.850403 -4.85791 -10.850403 -10.850403z" fill-rule="evenodd"></path><path fill="#000000" fill-opacity="0.0" d="m994.8819 300.09967l0 0c0 -5.992523 4.857849 -10.850403 10.850403 -10.850403l0 0c2.8776855 0 5.637512 1.143158 7.6723633 3.178009c2.034851 2.034851 3.1780396 4.7946777 3.1780396 7.672394l0 0c0 5.9924927 -4.85791 10.850403 -10.850403 10.850403l0 0c-5.9925537 0 -10.850403 -4.85791 -10.850403 -10.850403z" fill-rule="evenodd"></path><path fill="#000000" fill-opacity="0.0" d="m553.18896 285.12598c64.64569 0 129.29132 -62.94487 129.29132 -125.889755" fill-rule="evenodd"></path><path stroke="#ffffff" stroke-width="1.0" stroke-linejoin="round" stroke-linecap="butt" d="m553.18896 285.12598c32.322876 0 64.64569 -15.736206 88.88782 -39.340546c12.121033 -11.80217 22.221924 -25.57135 29.292542 -40.324066c3.5353394 -7.376343 6.3131104 -14.998581 8.20697 -22.74376c0.94696045 -3.872589 1.6729736 -7.7759094 2.1622314 -11.694595c0.2446289 -1.9593353 0.4300537 -3.9225311 0.5543823 -5.887619c0.031066895 -0.49128723 0.058288574 -0.9826813 0.081726074 -1.4741669c0.011657715 -0.2457428 0.022399902 -0.4915161 0.032165527 -0.7373047l0.009399414 -0.2612152" fill-rule="evenodd"></path><path fill="#ffffff" stroke="#ffffff" stroke-width="1.0" stroke-linecap="butt" d="m682.41614 162.6627l1.1033936 1.1454315l-1.0665894 -3.1102753l-1.18219 3.0681763z" fill-rule="evenodd"></path><path fill="#000000" fill-opacity="0.0" d="m815.32806 74.72441l135.87402 0l0 68.157486l-135.87402 0z" fill-rule="evenodd"></path><path fill="#ffffff" d="m836.9838 104.28565l-0.28125 1.015625q-1.40625 -0.234375 -2.40625 -0.234375q-1.03125 0 -1.515625 0.234375q-0.421875 0.203125 -0.53125 0.515625q-0.109375 0.296875 -0.109375 1.1875l0 0.625l4.03125 0l0 1.015625l-4.03125 0l0 6.046875l4.03125 0l0 1.03125l-7.046875 0l0 -1.03125l1.984375 0l0 -6.046875l-1.984375 0l0 -1.015625l1.984375 0l0 -1.234375q0 -0.59375 0.15625 -1.078125q0.171875 -0.484375 0.84375 -0.875q0.6875 -0.390625 2.109375 -0.390625q1.0625 0 2.765625 0.234375zm7.7249756 1.53125l-1.328125 0l0 -2.296875l1.328125 0l0 2.296875zm0 8.875l3.21875 0l0 1.03125l-7.53125 0l0 -1.03125l3.28125 0l0 -6.046875l-2.84375 0l0 -1.015625l3.875 0l0 7.0625zm11.068787 0l3.25 0l0 1.03125l-7.53125 0l0 -1.03125l3.265625 0l0 -9.640625l-3.171875 0l0 -1.03125l4.1875 0l0 10.671875zm14.990601 -2.890625l-7.65625 0q0.015625 1.296875 0.8125 2.21875q0.796875 0.921875 2.734375 0.921875q0.84375 0 1.890625 -0.3125q1.046875 -0.3125 2.015625 -0.84375l0.3125 0.984375q-1.046875 0.5625 -2.15625 0.875q-1.109375 0.296875 -2.109375 0.296875q-2.15625 0 -3.359375 -1.15625q-1.203125 -1.171875 -1.203125 -3.109375q0 -1.25 0.578125 -2.21875q0.59375 -0.984375 1.609375 -1.53125q1.03125 -0.546875 2.28125 -0.546875q1.96875 0 3.09375 1.1875q1.140625 1.171875 1.15625 3.234375zm-4.28125 -3.375q-1.3125 0 -2.234375 0.65625q-0.90625 0.65625 -1.09375 1.703125l6.5 0q-0.109375 -1.015625 -0.96875 -1.6875q-0.859375 -0.671875 -2.203125 -0.671875zm12.521912 6.4375q0 0.4375 -0.375 0.765625q-0.375 0.3125 -0.875 0.3125q-0.5625 0 -0.953125 -0.328125q-0.375 -0.34375 -0.375 -0.765625q0 -0.453125 0.375 -0.78125q0.390625 -0.34375 0.9375 -0.34375q0.515625 0 0.890625 0.34375q0.375 0.328125 0.375 0.796875zm7.2562256 -5.859375q0.5625 -0.75 1.4375 -1.1875q0.875 -0.4375 1.921875 -0.4375q1.0625 0 1.984375 0.53125q0.921875 0.53125 1.46875 1.515625q0.5625 0.984375 0.5625 2.25q0 1.078125 -0.53125 2.078125q-0.515625 0.984375 -1.4375 1.59375q-0.921875 0.59375 -2.046875 0.59375q-2.25 0 -3.359375 -1.5l0 1.28125l-2.546875 0l0 -1.03125l1.546875 0l0 -9.640625l-1.546875 0l0 -1.03125l2.546875 0l0 4.984375zm3.25 5.921875q0.828125 0 1.53125 -0.4375q0.71875 -0.4375 1.140625 -1.1875q0.421875 -0.75 0.421875 -1.625q0 -0.875 -0.390625 -1.625q-0.375 -0.75 -1.09375 -1.1875q-0.703125 -0.453125 -1.625 -0.453125q-0.828125 0 -1.5625 0.421875q-0.71875 0.421875 -1.171875 1.15625q-0.4375 0.734375 -0.4375 1.625q0 1.0 0.421875 1.75q0.4375 0.75 1.171875 1.15625q0.734375 0.40625 1.59375 0.40625zm13.115662 -6.796875l0 -0.75l1.0 0l0 2.953125l-1.0 0l0 -1.109375q-0.640625 -0.390625 -1.375 -0.59375q-0.734375 -0.21875 -1.46875 -0.21875q-1.0625 0 -1.75 0.375q-0.6875 0.375 -0.6875 1.03125q0 0.6875 0.796875 1.03125q0.796875 0.328125 2.671875 0.34375q1.265625 0.015625 1.984375 0.265625q0.71875 0.234375 1.0 0.671875q0.28125 0.4375 0.28125 1.15625q0 1.203125 -0.984375 1.9375q-0.984375 0.71875 -2.5625 0.71875q-0.859375 0 -1.609375 -0.171875q-0.734375 -0.171875 -1.703125 -0.65625l0 0.828125l-1.03125 0l0 -3.171875l1.03125 0l0 1.109375q1.359375 1.046875 3.09375 1.046875q1.234375 0 1.984375 -0.40625q0.75 -0.40625 0.75 -1.125q0 -0.5 -0.296875 -0.75q-0.28125 -0.265625 -0.71875 -0.328125q-0.4375 -0.0625 -1.265625 -0.09375l-0.828125 -0.0625q-1.078125 -0.078125 -1.796875 -0.21875q-0.71875 -0.15625 -1.265625 -0.609375q-0.53125 -0.453125 -0.53125 -1.359375q0 -1.171875 0.921875 -1.875q0.921875 -0.71875 2.46875 -0.71875q1.671875 0 2.890625 0.75zm9.959351 6.734375q0 0.4375 -0.375 0.765625q-0.375 0.3125 -0.875 0.3125q-0.5625 0 -0.953125 -0.328125q-0.375 -0.34375 -0.375 -0.765625q0 -0.453125 0.375 -0.78125q0.390625 -0.34375 0.9375 -0.34375q0.515625 0 0.890625 0.34375q0.375 0.328125 0.375 0.796875zm11.303162 -9.046875l-1.3125 0l0 -2.296875l1.3125 0l0 2.296875zm0.375 10.3125q0 1.59375 -0.84375 2.390625q-0.84375 0.796875 -2.375 0.796875q-1.484375 0 -2.625 -0.265625l0.15625 -1.0q1.34375 0.265625 2.46875 0.265625q1.203125 0 1.703125 -0.609375q0.5 -0.609375 0.5 -1.828125l0 -7.234375l-4.828125 0l0 -1.015625l5.84375 0l0 8.5zm11.943726 -8.0l0 -0.75l1.0 0l0 2.953125l-1.0 0l0 -1.109375q-0.640625 -0.390625 -1.375 -0.59375q-0.734375 -0.21875 -1.46875 -0.21875q-1.0625 0 -1.75 0.375q-0.6875 0.375 -0.6875 1.03125q0 0.6875 0.796875 1.03125q0.796875 0.328125 2.671875 0.34375q1.265625 0.015625 1.984375 0.265625q0.71875 0.234375 1.0 0.671875q0.28125 0.4375 0.28125 1.15625q0 1.203125 -0.984375 1.9375q-0.984375 0.71875 -2.5625 0.71875q-0.859375 0 -1.609375 -0.171875q-0.734375 -0.171875 -1.703125 -0.65625l0 0.828125l-1.03125 0l0 -3.171875l1.03125 0l0 1.109375q1.359375 1.046875 3.09375 1.046875q1.234375 0 1.984375 -0.40625q0.75 -0.40625 0.75 -1.125q0 -0.5 -0.296875 -0.75q-0.28125 -0.265625 -0.71875 -0.328125q-0.4375 -0.0625 -1.265625 -0.09375l-0.828125 -0.0625q-1.078125 -0.078125 -1.796875 -0.21875q-0.71875 -0.15625 -1.265625 -0.609375q-0.53125 -0.453125 -0.53125 -1.359375q0 -1.171875 0.921875 -1.875q0.921875 -0.71875 2.46875 -0.71875q1.671875 0 2.890625 0.75z" fill-rule="nonzero"></path><path fill="#000000" fill-opacity="0.0" d="m777.64886 108.80315l37.66931 0" fill-rule="evenodd"></path><path stroke="#ffffff" stroke-width="1.0" stroke-linejoin="round" stroke-linecap="butt" d="m777.64886 108.80315l31.669312 0" fill-rule="evenodd"></path><path fill="#ffffff" stroke="#ffffff" stroke-width="1.0" stroke-linecap="butt" d="m809.3182 110.45488l4.538086 -1.6517334l-4.538086 -1.6517258z" fill-rule="evenodd"></path><path fill="#000000" fill-opacity="0.0" d="m553.18896 285.12598c17.952393 0 26.928406 5.708679 35.904785 11.417328c8.976379 5.708679 17.953125 11.417328 35.90625 11.417328" fill-rule="evenodd"></path><path stroke="#d9d9d9" stroke-width="1.0" stroke-linejoin="round" stroke-linecap="butt" d="m553.18896 285.12598c17.952393 0 26.928406 5.708679 35.904785 11.417328c4.488159 2.8543396 8.97644 5.708679 14.586853 7.8494263c2.8051758 1.0703735 5.890869 1.9623413 9.397339 2.586731c1.7532349 0.31219482 3.6117554 0.5574951 5.5928955 0.72473145c0.49523926 0.041809082 0.99823 0.07873535 1.5090942 0.11062622c0.25549316 0.015930176 0.51293945 0.03060913 0.7723999 0.044006348l0.6213379 0.028747559" fill-rule="evenodd"></path><path fill="#d9d9d9" stroke="#d9d9d9" stroke-width="1.0" stroke-linecap="butt" d="m621.57367 307.88757l-1.1482544 1.1003723l3.113037 -1.0584717l-3.0651245 -1.1901855z" fill-rule="evenodd"></path><path fill="#efefef" d="m624.9979 274.3573l0 0c0 -9.283203 7.5255737 -16.808746 16.808777 -16.808746l156.7132 0c4.458008 0 8.733337 1.7709045 11.88562 4.9231567c3.1522217 3.1522522 4.9231567 7.427643 4.9231567 11.88559l0 67.23291c0 9.283203 -7.5255127 16.808746 -16.808777 16.808746l-156.7132 0l0 0c-9.283203 0 -16.808777 -7.525543 -16.808777 -16.808746z" fill-rule="evenodd"></path><path stroke="#cccccc" stroke-width="1.0" stroke-linejoin="round" stroke-linecap="butt" d="m624.9979 274.3573l0 0c0 -9.283203 7.5255737 -16.808746 16.808777 -16.808746l156.7132 0c4.458008 0 8.733337 1.7709045 11.88562 4.9231567c3.1522217 3.1522522 4.9231567 7.427643 4.9231567 11.88559l0 67.23291c0 9.283203 -7.5255127 16.808746 -16.808777 16.808746l-156.7132 0l0 0c-9.283203 0 -16.808777 -7.525543 -16.808777 -16.808746z" fill-rule="evenodd"></path><path fill="#d9d9d9" d="m665.7353 315.45377l0 -0.34375l1.703125 -0.84375l0 -11.65625l-1.6875 -0.890625l0 -0.34375l3.140625 0l8.140625 10.234375l0 -9.078125l-2.125 -0.8125l0 -0.34375l5.3125 0l0 0.34375l-1.6875 0.828125l0 13.015625l-0.796875 0l-8.796875 -11.109375l0 9.828125l2.125 0.828125l0 0.34375l-5.328125 0zm19.088074 0.21875q-1.0 0 -1.671875 -0.578125q-0.65625 -0.59375 -0.65625 -1.640625q0 -1.046875 0.78125 -1.8125q0.78125 -0.765625 2.609375 -1.203125l2.03125 -0.46875l0 -1.546875q0 -0.734375 -0.59375 -1.25q-0.578125 -0.53125 -1.328125 -0.53125q-0.8125 0 -1.140625 0.4375q-0.3125 0.4375 -0.3125 1.171875l0 0.59375l-0.109375 0.109375l-1.109375 0q-0.3125 0 -0.4375 -0.109375q-0.109375 -0.109375 -0.109375 -0.5q0 -0.46875 0.265625 -0.953125q0.28125 -0.484375 0.859375 -0.859375q0.59375 -0.375 1.25 -0.625q0.65625 -0.265625 1.40625 -0.265625q0.734375 0 1.453125 0.21875q0.71875 0.203125 1.15625 0.71875q0.453125 0.5 0.453125 1.390625l0 6.0625q0.15625 0.140625 0.421875 0.25q0.28125 0.109375 0.78125 0.109375l0.796875 0l0.0625 0.03125l0 0.078125q-0.25 0.46875 -0.75 0.828125q-0.5 0.34375 -1.21875 0.34375q-0.671875 0 -1.09375 -0.34375q-0.40625 -0.359375 -0.578125 -0.9375l-0.125 0q-0.5625 0.546875 -1.390625 0.921875q-0.8125 0.359375 -1.703125 0.359375zm-0.65625 -2.65625q0 1.328125 1.59375 1.328125q0.515625 0 1.015625 -0.109375q0.5 -0.109375 1.140625 -0.375l0 -3.15625q-1.703125 0.3125 -2.5 0.671875q-0.78125 0.34375 -1.015625 0.75q-0.234375 0.40625 -0.234375 0.890625zm12.195129 2.65625q-0.9375 0 -1.625 -0.546875q-0.671875 -0.5625 -0.671875 -1.5625l0 -6.703125l-1.75 0l0 -0.125l1.8125 -0.875l1.515625 -2.34375l0.125 0l0 2.34375l2.8125 0l0 1.0l-2.8125 0l0 6.328125q0 0.5625 0.484375 0.828125q0.484375 0.25 1.15625 0.25q0.40625 0 0.75 -0.046875q0.359375 -0.046875 0.609375 -0.109375l0.0625 0l0 0.21875q-0.203125 0.484375 -0.84375 0.921875q-0.625 0.421875 -1.625 0.421875zm6.393921 -12.609375q-0.546875 0 -0.921875 -0.375q-0.359375 -0.375 -0.359375 -0.90625q0 -0.546875 0.359375 -0.90625q0.375 -0.375 0.921875 -0.375q0.5625 0 0.921875 0.375q0.359375 0.359375 0.359375 0.90625q0 0.53125 -0.359375 0.90625q-0.359375 0.375 -0.921875 0.375zm-2.125 12.390625l0 -0.34375l1.34375 -0.6875l0 -6.34375l-1.28125 -1.109375l0 -0.15625l2.859375 -1.171875l0.125 0l0 8.78125l1.34375 0.6875l0 0.34375l-4.390625 0zm10.363281 0l-3.90625 -8.59375l-1.421875 -0.65625l0 -0.34375l5.09375 0l0 0.34375l-1.75 0.640625l0 0.125l2.734375 5.953125l0.078125 0l2.40625 -5.828125l0 -0.125l-1.53125 -0.765625l0 -0.34375l4.1875 0l0 0.34375l-1.578125 0.734375l-3.859375 8.515625l-0.453125 0zm10.925049 0.21875q-2.078125 0 -3.28125 -1.25q-1.1875 -1.265625 -1.1875 -3.34375q0 -1.59375 0.625 -2.8125q0.640625 -1.234375 1.671875 -1.921875q1.03125 -0.703125 2.25 -0.703125q1.6875 0 2.65625 1.171875q0.96875 1.171875 0.96875 3.375l-0.109375 0.109375l-6.375 0q0.015625 0.96875 0.375 1.84375q0.375 0.859375 1.171875 1.390625q0.796875 0.53125 2.140625 0.53125q1.171875 0 2.75 -0.84375l0.0625 0l0 0.203125q-0.484375 0.921875 -1.453125 1.59375q-0.96875 0.65625 -2.265625 0.65625zm-0.265625 -9.09375q-1.015625 0 -1.671875 0.71875q-0.65625 0.71875 -0.796875 2.015625l4.8125 0q-0.234375 -1.453125 -0.828125 -2.09375q-0.578125 -0.640625 -1.515625 -0.640625zm13.717407 9.09375q-1.0 0 -1.671875 -0.578125q-0.65625 -0.59375 -0.65625 -1.640625q0 -1.046875 0.78125 -1.8125q0.78125 -0.765625 2.609375 -1.203125l2.03125 -0.46875l0 -1.546875q0 -0.734375 -0.59375 -1.25q-0.578125 -0.53125 -1.328125 -0.53125q-0.8125 0 -1.140625 0.4375q-0.3125 0.4375 -0.3125 1.171875l0 0.59375l-0.109375 0.109375l-1.109375 0q-0.3125 0 -0.4375 -0.109375q-0.109375 -0.109375 -0.109375 -0.5q0 -0.46875 0.265625 -0.953125q0.28125 -0.484375 0.859375 -0.859375q0.59375 -0.375 1.25 -0.625q0.65625 -0.265625 1.40625 -0.265625q0.734375 0 1.453125 0.21875q0.71875 0.203125 1.15625 0.71875q0.453125 0.5 0.453125 1.390625l0 6.0625q0.15625 0.140625 0.421875 0.25q0.28125 0.109375 0.78125 0.109375l0.796875 0l0.0625 0.03125l0 0.078125q-0.25 0.46875 -0.75 0.828125q-0.5 0.34375 -1.21875 0.34375q-0.671875 0 -1.09375 -0.34375q-0.40625 -0.359375 -0.578125 -0.9375l-0.125 0q-0.5625 0.546875 -1.390625 0.921875q-0.8125 0.359375 -1.703125 0.359375zm-0.65625 -2.65625q0 1.328125 1.59375 1.328125q0.515625 0 1.015625 -0.109375q0.5 -0.109375 1.140625 -0.375l0 -3.15625q-1.703125 0.3125 -2.5 0.671875q-0.78125 0.34375 -1.015625 0.75q-0.234375 0.40625 -0.234375 0.890625zm8.788818 7.34375l0 -0.34375l1.34375 -0.6875l0 -11.25l-1.28125 -1.109375l0 -0.15625l2.640625 -1.171875l0.125 0l0.171875 1.296875l0.15625 0q0.796875 -0.671875 1.546875 -0.984375q0.75 -0.3125 1.625 -0.3125q1.09375 0 1.921875 0.5625q0.828125 0.546875 1.296875 1.5625q0.484375 1.015625 0.484375 2.421875q0 1.75 -0.65625 2.984375q-0.640625 1.21875 -1.75 1.859375q-1.109375 0.640625 -2.421875 0.640625q-1.203125 0 -2.15625 -0.21875l0 3.875l1.515625 0.6875l0 0.34375l-4.5625 0zm5.15625 -13.25q-0.515625 0 -1.0625 0.171875q-0.546875 0.15625 -1.046875 0.46875l0 6.0q0.640625 0.515625 1.296875 0.703125q0.65625 0.1875 1.46875 0.1875q1.03125 0 1.765625 -0.859375q0.75 -0.859375 0.75 -2.890625q0 -1.328125 -0.421875 -2.15625q-0.421875 -0.828125 -1.15625 -1.21875q-0.71875 -0.40625 -1.59375 -0.40625zm6.9368896 13.25l0 -0.34375l1.34375 -0.6875l0 -11.25l-1.28125 -1.109375l0 -0.15625l2.640625 -1.171875l0.125 0l0.171875 1.296875l0.15625 0q0.796875 -0.671875 1.546875 -0.984375q0.75 -0.3125 1.625 -0.3125q1.09375 0 1.921875 0.5625q0.828125 0.546875 1.296875 1.5625q0.484375 1.015625 0.484375 2.421875q0 1.75 -0.65625 2.984375q-0.640625 1.21875 -1.75 1.859375q-1.109375 0.640625 -2.421875 0.640625q-1.203125 0 -2.15625 -0.21875l0 3.875l1.515625 0.6875l0 0.34375l-4.5625 0zm5.15625 -13.25q-0.515625 0 -1.0625 0.171875q-0.546875 0.15625 -1.046875 0.46875l0 6.0q0.640625 0.515625 1.296875 0.703125q0.65625 0.1875 1.46875 0.1875q1.03125 0 1.765625 -0.859375q0.75 -0.859375 0.75 -2.890625q0 -1.328125 -0.421875 -2.15625q-0.421875 -0.828125 -1.15625 -1.21875q-0.71875 -0.40625 -1.59375 -0.40625zm10.452454 8.5625q-1.0 0 -1.734375 -0.171875q-0.71875 -0.171875 -1.46875 -0.5625l0 -2.390625l0.296875 0l0.6875 1.171875q0.65625 1.1875 2.15625 1.1875q0.84375 0 1.328125 -0.40625q0.484375 -0.40625 0.484375 -1.109375q0 -0.625 -0.3125 -0.96875q-0.296875 -0.34375 -0.84375 -0.609375q-0.53125 -0.265625 -1.28125 -0.609375q-1.09375 -0.484375 -1.6875 -1.0625q-0.578125 -0.59375 -0.578125 -1.65625q0 -0.796875 0.453125 -1.4375q0.453125 -0.640625 1.140625 -1.015625q0.6875 -0.390625 1.4375 -0.390625q0.796875 0 1.453125 0.203125q0.65625 0.1875 1.34375 0.53125l0 2.3125l-0.296875 0l-0.703125 -1.125q-0.359375 -0.578125 -0.796875 -0.828125q-0.421875 -0.265625 -0.90625 -0.265625q-0.734375 0 -1.171875 0.375q-0.4375 0.359375 -0.4375 1.0q0 0.71875 0.515625 1.09375q0.53125 0.375 1.53125 0.84375q0.609375 0.296875 1.203125 0.59375q0.609375 0.296875 1.0 0.84375q0.40625 0.546875 0.40625 1.546875q0 0.9375 -0.515625 1.59375q-0.515625 0.640625 -1.265625 0.984375q-0.734375 0.328125 -1.4375 0.328125z" fill-rule="nonzero"></path><path fill="#000000" fill-opacity="0.0" d="m553.18896 285.12598c17.952393 0 26.928406 44.078735 35.904785 88.1575c8.976379 44.078735 17.953125 88.15747 35.90625 88.15747" fill-rule="evenodd"></path><path stroke="#d9d9d9" stroke-width="1.0" stroke-linejoin="round" stroke-linecap="butt" d="m553.18896 285.12598c17.952393 0 26.928406 44.078735 35.904785 88.1575c4.488159 22.039368 8.97644 44.078735 14.586853 60.608246c2.8051758 8.2647705 5.890869 15.152069 9.397339 19.973175c1.7532349 2.4105835 3.6117554 4.3045654 5.5928955 5.5959473c0.49523926 0.32281494 0.99823 0.6080017 1.5090942 0.854187c0.25549316 0.12307739 0.51293945 0.23638916 0.7723999 0.33981323c0.12976074 0.051727295 0.25994873 0.10092163 0.39068604 0.14764404l0.27368164 0.09222412" fill-rule="evenodd"></path><path fill="#d9d9d9" stroke="#d9d9d9" stroke-width="1.0" stroke-linecap="butt" d="m621.6167 460.8947l-1.2894287 0.93096924l3.2294922 -0.6177368l-2.8709717 -1.6026917z" fill-rule="evenodd"></path><path fill="#efefef" d="m624.9979 427.83237l0 0c0 -9.283203 7.5255737 -16.808746 16.808777 -16.808746l156.7132 0c4.458008 0 8.733337 1.7709045 11.88562 4.9231567c3.1522217 3.1522522 4.9231567 7.4276123 4.9231567 11.88559l0 67.23291c0 9.283203 -7.5255127 16.808746 -16.808777 16.808746l-156.7132 0l0 0c-9.283203 0 -16.808777 -7.525543 -16.808777 -16.808746z" fill-rule="evenodd"></path><path stroke="#cccccc" stroke-width="1.0" stroke-linejoin="round" stroke-linecap="butt" d="m624.9979 427.83237l0 0c0 -9.283203 7.5255737 -16.808746 16.808777 -16.808746l156.7132 0c4.458008 0 8.733337 1.7709045 11.88562 4.9231567c3.1522217 3.1522522 4.9231567 7.4276123 4.9231567 11.88559l0 67.23291c0 9.283203 -7.5255127 16.808746 -16.808777 16.808746l-156.7132 0l0 0c-9.283203 0 -16.808777 -7.525543 -16.808777 -16.808746z" fill-rule="evenodd"></path><path fill="#d9d9d9" d="m678.49225 468.92883l0 -0.34375l1.703125 -0.84375l0 -11.6875l-1.703125 -0.859375l0 -0.34375l5.390625 0q1.40625 0 2.515625 0.359375q1.125 0.34375 1.765625 1.046875q0.640625 0.6875 0.640625 1.75q0 1.09375 -0.71875 2.0q-0.71875 0.90625 -2.09375 1.28125q1.90625 0.265625 2.96875 1.1875q1.0625 0.921875 1.0625 2.359375q0 1.171875 -0.734375 2.109375q-0.734375 0.921875 -2.015625 1.453125q-1.28125 0.53125 -2.90625 0.53125l-5.875 0zm4.90625 -12.90625l-1.28125 0l0 5.0625l1.40625 0q1.515625 0 2.359375 -0.65625q0.859375 -0.65625 0.859375 -1.828125q0 -2.578125 -3.34375 -2.578125zm0.8125 6.234375l-2.09375 0l0 5.5l2.234375 0q1.6875 0 2.640625 -0.765625q0.96875 -0.765625 0.96875 -1.984375q0 -1.453125 -0.96875 -2.09375q-0.96875 -0.65625 -2.78125 -0.65625zm8.690247 11.8125q-0.484375 0 -0.609375 -0.140625q-0.109375 -0.140625 -0.109375 -0.484375l0 -1.0625l0.078125 -0.078125l0.984375 0q0.53125 0 0.8125 -0.109375q0.28125 -0.09375 0.515625 -0.484375q0.234375 -0.390625 0.65625 -1.28125l0.75 -1.671875l-3.90625 -8.421875l-1.421875 -0.65625l0 -0.34375l5.09375 0l0 0.34375l-1.75 0.65625l0 0.109375l2.828125 6.1875l0.078125 0l2.375 -6.0625l0 -0.125l-1.59375 -0.765625l0 -0.34375l4.1875 0l0 0.34375l-1.609375 0.71875l-4.203125 10.21875q-0.1875 0.484375 -0.328125 0.8125q-0.140625 0.34375 -0.3125 0.640625q-0.171875 0.3125 -0.484375 0.765625q-0.421875 0.609375 -0.96875 0.921875q-0.53125 0.3125 -1.0625 0.3125zm12.909424 -4.921875q-0.9375 0 -1.625 -0.546875q-0.671875 -0.5625 -0.671875 -1.5625l0 -6.703125l-1.75 0l0 -0.125l1.8125 -0.875l1.515625 -2.34375l0.125 0l0 2.34375l2.8125 0l0 1.0l-2.8125 0l0 6.328125q0 0.5625 0.484375 0.828125q0.484375 0.25 1.15625 0.25q0.40625 0 0.75 -0.046875q0.359375 -0.046875 0.609375 -0.109375l0.0625 0l0 0.21875q-0.203125 0.484375 -0.84375 0.921875q-0.625 0.421875 -1.625 0.421875zm8.643921 0q-2.078125 0 -3.28125 -1.25q-1.1875 -1.265625 -1.1875 -3.34375q0 -1.59375 0.625 -2.8125q0.640625 -1.234375 1.671875 -1.921875q1.03125 -0.703125 2.25 -0.703125q1.6875 0 2.65625 1.171875q0.96875 1.171875 0.96875 3.375l-0.109375 0.109375l-6.375 0q0.015625 0.96875 0.375 1.84375q0.375 0.859375 1.171875 1.390625q0.796875 0.53125 2.140625 0.53125q1.171875 0 2.75 -0.84375l0.0625 0l0 0.203125q-0.484375 0.921875 -1.453125 1.59375q-0.96875 0.65625 -2.265625 0.65625zm-0.265625 -9.09375q-1.015625 0 -1.671875 0.71875q-0.65625 0.71875 -0.796875 2.015625l4.8125 0q-0.234375 -1.453125 -0.828125 -2.09375q-0.578125 -0.640625 -1.515625 -0.640625zm10.588501 9.09375q-2.078125 0 -3.28125 -1.25q-1.1875 -1.265625 -1.1875 -3.34375q0 -1.59375 0.65625 -2.8125q0.65625 -1.234375 1.75 -1.921875q1.109375 -0.703125 2.5 -0.703125q0.859375 0 1.671875 0.296875q0.8125 0.28125 1.234375 0.75q0.34375 0.40625 0.34375 0.640625q0 0.296875 -0.28125 0.515625l-0.8125 0.671875l-0.140625 0l-0.734375 -0.96875q-0.3125 -0.4375 -0.796875 -0.703125q-0.484375 -0.265625 -1.1875 -0.265625q-1.171875 0 -1.84375 0.9375q-0.671875 0.921875 -0.671875 2.578125q0 1.03125 0.34375 1.9375q0.34375 0.90625 1.140625 1.46875q0.796875 0.5625 2.203125 0.5625q1.171875 0 2.75 -0.84375l0.0625 0l0 0.203125q-0.484375 0.921875 -1.453125 1.59375q-0.96875 0.65625 -2.265625 0.65625zm10.450562 0q-1.421875 0 -2.484375 -0.65625q-1.046875 -0.671875 -1.640625 -1.796875q-0.578125 -1.140625 -0.578125 -2.5625q0 -1.4375 0.578125 -2.5625q0.59375 -1.125 1.640625 -1.78125q1.0625 -0.671875 2.484375 -0.671875q1.40625 0 2.453125 0.671875q1.0625 0.65625 1.640625 1.78125q0.59375 1.125 0.59375 2.5625q0 1.421875 -0.59375 2.5625q-0.578125 1.125 -1.640625 1.796875q-1.046875 0.65625 -2.453125 0.65625zm0.296875 -0.921875q0.84375 0 1.390625 -0.53125q0.5625 -0.53125 0.8125 -1.375q0.265625 -0.84375 0.265625 -1.765625q0 -1.125 -0.3125 -2.171875q-0.3125 -1.046875 -0.984375 -1.703125q-0.671875 -0.671875 -1.734375 -0.671875q-0.875 0 -1.4375 0.546875q-0.546875 0.53125 -0.8125 1.359375q-0.265625 0.828125 -0.265625 1.765625q0 1.140625 0.3125 2.1875q0.328125 1.03125 1.0 1.703125q0.6875 0.65625 1.765625 0.65625zm10.110962 0.921875q-1.078125 0 -1.921875 -0.53125q-0.84375 -0.546875 -1.328125 -1.515625q-0.46875 -0.96875 -0.46875 -2.3125q0 -1.8125 0.703125 -3.078125q0.703125 -1.265625 1.875 -1.921875q1.171875 -0.671875 2.5625 -0.671875q0.59375 0 1.046875 0.0625q0.453125 0.046875 0.8125 0.125l0 -3.9375l-1.390625 -1.109375l0 -0.15625l2.96875 -1.171875l0.125 0l0 15.046875l1.515625 0.609375l0 0.34375l-3.015625 0l-0.15625 -1.09375l-0.15625 0q-0.8125 0.6875 -1.578125 1.0q-0.75 0.3125 -1.59375 0.3125zm-2.015625 -4.84375q0 1.765625 0.9375 2.5625q0.9375 0.796875 2.25 0.796875q0.5 0 1.046875 -0.15625q0.546875 -0.15625 1.0625 -0.46875l0 -5.984375q-0.515625 -0.4375 -1.015625 -0.65625q-0.5 -0.234375 -1.125 -0.234375q-0.84375 0 -1.5625 0.421875q-0.71875 0.40625 -1.15625 1.3125q-0.4375 0.90625 -0.4375 2.40625zm14.81311 4.84375q-2.078125 0 -3.28125 -1.25q-1.1875 -1.265625 -1.1875 -3.34375q0 -1.59375 0.625 -2.8125q0.640625 -1.234375 1.671875 -1.921875q1.03125 -0.703125 2.25 -0.703125q1.6875 0 2.65625 1.171875q0.96875 1.171875 0.96875 3.375l-0.109375 0.109375l-6.375 0q0.015625 0.96875 0.375 1.84375q0.375 0.859375 1.171875 1.390625q0.796875 0.53125 2.140625 0.53125q1.171875 0 2.75 -0.84375l0.0625 0l0 0.203125q-0.484375 0.921875 -1.453125 1.59375q-0.96875 0.65625 -2.265625 0.65625zm-0.265625 -9.09375q-1.015625 0 -1.671875 0.71875q-0.65625 0.71875 -0.796875 2.015625l4.8125 0q-0.234375 -1.453125 -0.828125 -2.09375q-0.578125 -0.640625 -1.515625 -0.640625z" fill-rule="nonzero"></path><path fill="#efefef" d="m138.557 408.45703l0 0c0 -9.283203 7.525528 -16.808746 16.808731 -16.808746l156.71324 0c4.457947 0 8.733307 1.770935 11.885559 4.9231873c3.1522522 3.1522217 4.9231873 7.4276123 4.9231873 11.885559l0 67.23291c0 9.283234 -7.525543 16.808746 -16.808746 16.808746l-156.71324 0l0 0c-9.283203 0 -16.808731 -7.5255127 -16.808731 -16.808746z" fill-rule="evenodd"></path><path stroke="#cccccc" stroke-width="1.0" stroke-linejoin="round" stroke-linecap="butt" d="m138.557 408.45703l0 0c0 -9.283203 7.525528 -16.808746 16.808731 -16.808746l156.71324 0c4.457947 0 8.733307 1.770935 11.885559 4.9231873c3.1522522 3.1522217 4.9231873 7.4276123 4.9231873 11.885559l0 67.23291c0 9.283234 -7.525543 16.808746 -16.808746 16.808746l-156.71324 0l0 0c-9.283203 0 -16.808731 -7.5255127 -16.808731 -16.808746z" fill-rule="evenodd"></path><path fill="#d9d9d9" d="m208.44691 449.77225q-1.53125 0 -2.828125 -0.546875q-1.28125 -0.546875 -2.25 -1.515625q-0.953125 -0.96875 -1.484375 -2.28125q-0.53125 -1.328125 -0.53125 -2.90625q0 -1.578125 0.53125 -2.90625q0.53125 -1.328125 1.484375 -2.296875q0.96875 -0.96875 2.25 -1.515625q1.296875 -0.546875 2.828125 -0.546875q1.53125 0 2.828125 0.546875q1.3125 0.546875 2.265625 1.515625q0.96875 0.96875 1.5 2.296875q0.53125 1.328125 0.53125 2.90625q0 1.578125 -0.53125 2.90625q-0.53125 1.3125 -1.5 2.28125q-0.953125 0.96875 -2.265625 1.515625q-1.296875 0.546875 -2.828125 0.546875zm0.453125 -1.078125q1.359375 0 2.390625 -0.671875q1.046875 -0.6875 1.625 -1.921875q0.59375 -1.234375 0.59375 -2.921875q0 -2.078125 -0.734375 -3.609375q-0.71875 -1.546875 -1.953125 -2.40625q-1.21875 -0.859375 -2.734375 -0.859375q-1.359375 0 -2.421875 0.671875q-1.0625 0.671875 -1.65625 1.921875q-0.59375 1.234375 -0.59375 2.921875q0 2.0625 0.734375 3.625q0.734375 1.546875 1.96875 2.40625q1.234375 0.84375 2.78125 0.84375zm16.696243 1.078125q-2.171875 0 -3.75 -0.890625q-1.578125 -0.90625 -2.4375 -2.453125q-0.84375 -1.546875 -0.84375 -3.53125q0 -1.515625 0.578125 -2.890625q0.59375 -1.375 1.59375 -2.4375q1.015625 -1.0625 2.34375 -1.6875q1.34375 -0.625 2.828125 -0.625q1.078125 0 1.8125 0.140625q0.75 0.140625 1.328125 0.375q0.59375 0.21875 1.203125 0.515625l0.09375 3.734375l-0.375 0l-1.296875 -2.609375q-0.8125 -0.578125 -1.421875 -0.828125q-0.609375 -0.25 -1.375 -0.25q-1.546875 0 -2.75 0.765625q-1.203125 0.765625 -1.90625 2.109375q-0.6875 1.328125 -0.6875 3.046875q0 2.03125 0.671875 3.46875q0.671875 1.4375 1.8125 2.203125q1.15625 0.75 2.53125 0.75q1.171875 0 1.96875 -0.328125q0.8125 -0.328125 1.421875 -0.734375l1.28125 -2.28125l0.359375 0l-0.234375 3.390625q-0.609375 0.3125 -1.265625 0.546875q-0.640625 0.234375 -1.484375 0.359375q-0.828125 0.140625 -2.0 0.140625zm10.281158 0q-1.0 0 -1.671875 -0.578125q-0.65625 -0.59375 -0.65625 -1.640625q0 -1.046875 0.78125 -1.8125q0.78125 -0.765625 2.609375 -1.203125l2.03125 -0.46875l0 -1.546875q0 -0.734375 -0.59375 -1.25q-0.578125 -0.53125 -1.328125 -0.53125q-0.8125 0 -1.140625 0.4375q-0.3125 0.4375 -0.3125 1.171875l0 0.59375l-0.109375 0.109375l-1.109375 0q-0.3125 0 -0.4375 -0.109375q-0.109375 -0.109375 -0.109375 -0.5q0 -0.46875 0.265625 -0.953125q0.28125 -0.484375 0.859375 -0.859375q0.59375 -0.375 1.25 -0.625q0.65625 -0.265625 1.40625 -0.265625q0.734375 0 1.453125 0.21875q0.71875 0.203125 1.15625 0.71875q0.453125 0.5 0.453125 1.390625l0 6.0625q0.15625 0.140625 0.421875 0.25q0.28125 0.109375 0.78125 0.109375l0.796875 0l0.0625 0.03125l0 0.078125q-0.25 0.46875 -0.75 0.828125q-0.5 0.34375 -1.21875 0.34375q-0.671875 0 -1.09375 -0.34375q-0.40625 -0.359375 -0.578125 -0.9375l-0.125 0q-0.5625 0.546875 -1.390625 0.921875q-0.8125 0.359375 -1.703125 0.359375zm-0.65625 -2.65625q0 1.328125 1.59375 1.328125q0.515625 0 1.015625 -0.109375q0.5 -0.109375 1.140625 -0.375l0 -3.15625q-1.703125 0.3125 -2.5 0.671875q-0.78125 0.34375 -1.015625 0.75q-0.234375 0.40625 -0.234375 0.890625zm8.788864 2.4375l0 -0.34375l1.34375 -0.6875l0 -6.34375l-1.28125 -1.109375l0 -0.15625l2.640625 -1.171875l0.125 0l0.1875 1.578125l0.109375 0q0.796875 -0.8125 1.53125 -1.1875q0.734375 -0.390625 1.609375 -0.390625q1.015625 0 1.734375 0.46875q0.734375 0.453125 0.953125 1.359375l0.0625 0q0.890625 -0.9375 1.671875 -1.375q0.78125 -0.453125 1.7187347 -0.453125q1.1875 0 1.96875 0.640625q0.78125 0.625 0.78125 1.859375l0 6.28125l1.34375 0.6875l0 0.34375l-4.5624847 0l0 -0.34375l1.5156097 -0.6875l0 -5.28125q0 -0.9375 -0.578125 -1.421875q-0.5625 -0.5 -1.4218597 -0.5q-0.734375 0 -1.375 0.234375q-0.640625 0.234375 -1.0625 0.703125l0 6.265625l1.46875 0.6875l0 0.34375l-4.609375 0l0 -0.34375l1.4375 -0.6875l0 -5.28125q0 -0.9375 -0.578125 -1.421875q-0.5625 -0.5 -1.4375 -0.5q-0.53125 0 -1.1875 0.203125q-0.65625 0.1875 -1.0625 0.546875l0 6.453125l1.375 0.6875l0 0.34375l-4.421875 0zm18.24849 0l0 -0.34375l1.34375 -0.6875l0 -12.53125l-1.28125 -1.109375l0 -0.15625l2.859375 -1.171875l0.125 0l0 14.96875l1.34375 0.6875l0 0.34375l-4.390625 0z" fill-rule="nonzero"></path><path fill="#000000" fill-opacity="0.0" d="m328.88773 442.0735c8.492645 0 12.737274 -39.236206 16.985321 -78.47244c4.2480164 -39.236206 8.499451 -78.47244 16.998932 -78.47244" fill-rule="evenodd"></path><path stroke="#d9d9d9" stroke-width="1.0" stroke-linejoin="round" stroke-linecap="butt" d="m328.88773 442.0735c8.492645 0 12.737305 -39.236206 16.98529 -78.47244c2.1240234 -19.618103 4.2489014 -39.236206 6.9052124 -53.9498c1.328125 -7.356781 2.789154 -13.487457 4.449341 -17.7789c0.8300781 -2.145752 1.7099609 -3.831665 2.6479187 -4.9811707l0.03375244 -0.040008545" fill-rule="evenodd"></path><path fill="#d9d9d9" stroke="#d9d9d9" stroke-width="1.0" stroke-linecap="butt" d="m359.90924 286.85117l-0.4069519 1.5374756l2.1058655 -2.525238l-3.2363586 0.58084106z" fill-rule="evenodd"></path><path fill="#000000" fill-opacity="0.0" d="m0 407.99344l104.44095 0l0 68.15747l-104.44095 0z" fill-rule="evenodd"></path><path fill="#d9d9d9" d="m26.772156 437.5547l-0.28125 1.015625q-1.40625 -0.234375 -2.40625 -0.234375q-1.03125 0 -1.515625 0.234375q-0.421875 0.203125 -0.53125 0.515625q-0.109375 0.296875 -0.109375 1.1875l0 0.625l4.03125 0l0 1.015625l-4.03125 0l0 6.046875l4.03125 0l0 1.03125l-7.046875 0l0 -1.03125l1.984375 0l0 -6.046875l-1.984375 0l0 -1.015625l1.984375 0l0 -1.234375q0 -0.59375 0.15625 -1.078125q0.171875 -0.484375 0.84375 -0.875q0.6875 -0.390625 2.109375 -0.390625q1.0625 0 2.765625 0.234375zm7.725006 1.53125l-1.328125 0l0 -2.296875l1.328125 0l0 2.296875zm0 8.875l3.21875 0l0 1.03125l-7.53125 0l0 -1.03125l3.28125 0l0 -6.046875l-2.84375 0l0 -1.015625l3.875 0l0 7.0625zm11.068756 0l3.25 0l0 1.03125l-7.53125 0l0 -1.03125l3.265625 0l0 -9.640625l-3.171875 0l0 -1.03125l4.1875 0l0 10.671875zm14.990631 -2.890625l-7.65625 0q0.015625 1.296875 0.8125 2.21875q0.796875 0.921875 2.734375 0.921875q0.84375 0 1.890625 -0.3125q1.046875 -0.3125 2.015625 -0.84375l0.3125 0.984375q-1.046875 0.5625 -2.15625 0.875q-1.109375 0.296875 -2.109375 0.296875q-2.15625 0 -3.359375 -1.15625q-1.203125 -1.171875 -1.203125 -3.109375q0 -1.25 0.578125 -2.21875q0.59375 -0.984375 1.609375 -1.53125q1.03125 -0.546875 2.28125 -0.546875q1.96875 0 3.09375 1.1875q1.140625 1.171875 1.15625 3.234375zm-4.28125 -3.375q-1.3125 0 -2.234375 0.65625q-0.90625 0.65625 -1.09375 1.703125l6.5 0q-0.109375 -1.015625 -0.96875 -1.6875q-0.859375 -0.671875 -2.203125 -0.671875zm12.521881 6.4375q0 0.4375 -0.375 0.765625q-0.375 0.3125 -0.875 0.3125q-0.5625 0 -0.953125 -0.328125q-0.375 -0.34375 -0.375 -0.765625q0 -0.453125 0.375 -0.78125q0.390625 -0.34375 0.9375 -0.34375q0.515625 0 0.890625 0.34375q0.375 0.328125 0.375 0.796875zm10.287506 -6.15625q1.015625 -1.328125 2.203125 -1.328125q0.96875 0 1.46875 0.65625q0.515625 0.65625 0.515625 1.71875l0 4.9375l0.96875 0l0 1.03125l-1.984375 0l0 -5.515625q0 -1.796875 -1.203125 -1.796875q-0.5 0 -0.984375 0.390625q-0.46875 0.390625 -0.765625 1.015625l0 4.875l0.96875 0l0 1.03125l-2.0 0l0 -5.734375q0 -0.625 -0.34375 -1.09375q-0.34375 -0.46875 -0.9375 -0.46875q-0.46875 0 -0.859375 0.265625q-0.375 0.265625 -0.796875 0.90625l0 5.09375l0.953125 0l0 1.03125l-1.984375 0l0 -7.078125l-0.96875 0l0 -1.015625l2.0 0l0 0.84375q0.546875 -0.609375 0.984375 -0.84375q0.453125 -0.25 0.90625 -0.25q0.625 0 1.109375 0.359375q0.5 0.359375 0.75 0.96875zm11.256256 5.984375l3.25 0l0 1.03125l-7.53125 0l0 -1.03125l3.265625 0l0 -9.640625l-3.171875 0l0 -1.03125l4.1875 0l0 10.671875z" fill-rule="nonzero"></path><path fill="#000000" fill-opacity="0.0" d="m104.44095 442.07217l34.11023 0" fill-rule="evenodd"></path><path stroke="#d9d9d9" stroke-width="1.0" stroke-linejoin="round" stroke-linecap="butt" d="m104.44095 442.07217l28.11023 0" fill-rule="evenodd"></path><path fill="#d9d9d9" stroke="#d9d9d9" stroke-width="1.0" stroke-linecap="butt" d="m132.55118 443.7239l4.538101 -1.6517334l-4.538101 -1.6517334z" fill-rule="evenodd"></path></g></svg>

